<?xml version="1.0" encoding="UTF-8" standalone="no"?>
<svg
   width="459"
   height="459"
   viewBox="0 0 459 459"
   fill="none"
   version="1.1"
   id="svg397"
   sodipodi:docname="bg.svg"
   inkscape:version="1.2.2 (b0a8486541, 2022-12-01)"
   xmlns:inkscape="http://www.inkscape.org/namespaces/inkscape"
   xmlns:sodipodi="http://sodipodi.sourceforge.net/DTD/sodipodi-0.dtd"
   xmlns="http://www.w3.org/2000/svg"
   xmlns:svg="http://www.w3.org/2000/svg">
  <defs
     id="defs401" />
  <sodipodi:namedview
     id="namedview399"
     pagecolor="#ffffff"
     bordercolor="#111111"
     borderopacity="1"
     inkscape:showpageshadow="0"
     inkscape:pageopacity="0"
     inkscape:pagecheckerboard="1"
     inkscape:deskcolor="#d1d1d1"
     showgrid="false"
     inkscape:zoom="2.0566449"
     inkscape:cx="273.98994"
     inkscape:cy="258.67373"
     inkscape:window-width="2678"
     inkscape:window-height="1439"
     inkscape:window-x="1065"
     inkscape:window-y="586"
     inkscape:window-maximized="0"
     inkscape:current-layer="svg397" />
  <mask
     id="mask0_987_1707"
     style="mask-type:luminance"
     maskUnits="userSpaceOnUse"
     x="0"
     y="0"
     width="459"
     height="459">
    <path
       d="M458.28 0H0V458.28H458.28V0Z"
       fill="white"
       id="path378" />
  </mask>
  <g
     mask="url(#mask0_987_1707)"
     id="g395"
     style="fill:#7a36e6;fill-opacity:1">
    <path
       d="M501.095 407.47C505.115 407.47 507.59 410.121 510.462 411.226C511.478 411.623 512.538 411.888 513.643 412.153C513.996 409.679 514.306 407.249 514.659 404.775C510.064 402.521 505.16 400.047 500.343 398.28C498.046 397.44 496.455 397.528 494.555 396.689C489.872 394.568 484.393 391.696 480.019 389.929C479.312 389.973 478.561 390.061 477.854 390.105C474.805 389.399 472.242 388.868 469.282 388.515C468.089 388.382 466.631 387.587 465.703 387.322H460.754C456.557 386.482 451.697 386.394 447.057 386.527C446.571 386.35 446.129 386.129 445.687 385.952C442.595 386.924 435.26 385.908 431.372 387.145C424.037 389.487 415.819 391.033 408.705 393.905C407.468 394.17 406.187 394.436 404.949 394.701C403.889 395.143 402.873 396.38 401.945 396.91H400.575C401.061 396.998 400.178 398.191 399.957 398.28C396.201 399.561 392.401 400.798 388.601 402.079C386.083 403.493 384.581 405.614 382.018 407.249C381.046 406.498 380.118 408.133 379.632 407.823C377.953 408.133 376.053 409.9 374.286 410.607C371.546 411.667 368.983 412.021 367.128 412.993C366.332 413.258 365.537 413.523 364.742 413.788C364.477 413.612 364.212 413.391 363.946 413.214C361.826 414.539 359.263 414.893 356.789 415.998C351.221 418.472 347.598 419.311 340.485 419.797C337.48 419.974 334.166 419.135 331.913 418.383C330.808 418.472 329.659 418.516 328.555 418.604C325.904 418.295 323.253 417.942 320.602 417.632C315.344 416.307 310.572 414.274 305.888 412.463C303.635 411.579 302.928 412.065 300.94 411.049C300.144 410.916 299.349 410.784 298.554 410.651C296.521 409.812 294.444 408.884 292.765 408.044C291.793 407.779 290.777 407.514 289.805 407.249C284.945 403.803 279.687 400.445 274.296 398.103C270.762 396.556 267.58 395.982 264.178 394.347C262.897 393.552 261.66 392.757 260.378 391.961C256.358 390.592 251.674 389.84 247.079 388.382C244.649 387.454 242.174 386.527 239.7 385.599C238.286 385.289 238.375 386.041 237.137 385.775C234.133 385.201 230.51 385.113 227.991 384.582H216.857C216.592 384.494 208.55 384.229 207.534 384.582C207.357 384.627 206.739 385.245 206.341 385.157C204.75 384.892 197.637 386.836 195.383 387.94C192.688 388.515 189.948 389.133 187.253 389.752C182.879 390.945 178.107 392.712 174.13 394.701C172.231 395.673 170.728 397.705 168.961 398.677C165.868 400.4 163.261 401.372 160.036 403.052C158.445 403.847 156.899 406.41 154.689 405.835C153.894 406.1 154.468 406.056 154.071 406.41C153.231 408.221 149.211 408.928 147.532 409.988C140.109 414.539 131.007 415.6 122.258 418.339C119.386 419.223 115.63 417.765 113.686 418.339C111.963 418.869 108.959 418.781 107.324 417.544C106.705 418.163 105.335 417.986 104.319 417.721C101.58 417.102 98.8404 417.721 95.5707 416.925C93.0964 416.307 89.8268 416.263 87.8385 415.114H87.6175C85.9385 414.981 83.8619 413.567 82.448 412.551C81.5643 413.435 72.0205 408.928 69.502 407.779C68.795 407.735 68.0439 407.647 67.3369 407.602C64.5533 406.586 61.2395 405.747 58.4117 404.421C53.7282 402.256 48.8679 399.207 44.096 397.44C43.2123 397.131 42.0635 397.44 40.9147 396.866C37.7776 395.363 34.2429 393.905 31.1941 392.491C29.6919 391.785 28.2338 392.138 26.8199 391.475C24.2572 390.326 21.8713 388.647 19.2644 387.499C18.8225 387.631 18.3365 387.764 17.8947 387.896C16.304 387.454 14.7134 386.968 13.1227 386.482H9.76474C8.57176 386.173 6.45091 386.747 5.16957 386.482C3.49056 386.129 1.72319 385.952 0 385.864V393.464C3.18127 393.552 5.9207 393.817 6.98113 394.259C9.588 393.11 15.818 394.17 18.7342 395.452C20.5457 396.247 22.7108 397.838 24.4781 398.633C28.5873 400.445 32.5639 400.666 36.4079 402.61C36.8056 403.007 37.2032 403.405 37.6009 403.803C38.3962 404.112 39.6775 403.891 40.7822 404.421C46.261 406.984 52.005 408.972 57.3071 411.8C58.5443 412.109 59.8256 412.463 61.0628 412.772C64.5091 414.098 67.7788 414.849 71.181 416.351C79.8411 420.107 86.7339 423.111 97.0288 424.923H103.568C106.175 425.365 108.959 426.072 111.521 426.292C112.979 426.425 114.217 425.718 115.321 425.895C115.94 426.072 116.514 426.292 117.133 426.513C127.295 424.525 140.904 422.758 148.548 417.765C149.343 417.235 150.227 417.677 151.11 417.19C151.685 416.881 152.259 415.777 152.922 415.379C157.738 412.551 162.51 410.165 167.061 407.823C168.342 407.161 171.126 404.421 172.628 405.04C173.158 404.554 172.805 405.04 172.805 404.244C175.456 402.919 178.019 400.754 180.758 399.473C189.242 395.452 203.071 392.757 210.98 391.74C212.482 391.564 213.852 392.359 214.78 392.138C217.033 391.608 219.729 391.564 222.557 392.138C224.81 392.58 226.666 391.696 228.3 391.961C230.952 392.359 234.619 392.58 237.623 393.154H240.009C241.777 393.861 244.384 395.01 246.195 395.761C248.625 396.777 253.486 396.954 256.755 398.324C259.362 399.428 262.102 401.505 264.708 402.521C268.111 403.847 272.131 404.863 275.843 406.498C280.703 408.619 284.37 413.214 289.363 415.246C296.83 418.295 306.021 420.46 314.195 423.774C316.36 424.658 320.734 425.099 323.341 425.586C324.269 425.541 325.197 425.453 326.125 425.409C329.924 426.337 335.359 426.911 338.673 427.397C339.512 427.265 340.396 427.132 341.236 426.999C350.691 428.104 356.789 423.332 364.3 421.432C369.867 420.062 375.39 417.544 380.427 415.467C382.283 414.716 385.022 414.319 386.613 413.258C388.69 411.888 390.545 409.282 392.976 408.309C396.245 406.94 398.94 408.133 401.724 406.719C404.331 405.393 406.673 402.565 409.5 401.328C411.445 400.489 412.991 400.533 415.068 399.959C419.221 398.721 424.302 396.645 428.986 395.363C434.111 393.994 443.169 393.11 448.869 394.17C450.062 393.95 451.255 393.773 452.448 393.552C455.629 394.038 459.429 394.126 462.389 394.745C466.101 395.496 469.635 395.275 472.728 396.115C473.258 396.291 475.291 397.131 476.13 397.131C476.705 397.042 477.323 396.998 477.898 396.954C479.621 397.528 482.051 398.235 483.863 399.163C485.1 399.782 486.47 401.373 487.839 401.947C490.579 403.052 493.141 403.405 495.792 404.51C497.206 405.084 499.681 406.233 500.962 406.277C501.095 406.675 501.227 407.072 501.36 407.47H501.095Z"
       fill="#9A84D8"
       id="path381"
       style="fill:#7a36e6;fill-opacity:1" />
    <path
       d="M501.095 473.746C505.115 473.746 507.59 476.397 510.462 477.502C511.478 477.9 512.538 478.165 513.643 478.43C513.996 475.956 514.306 473.526 514.659 471.051C510.064 468.798 505.16 466.323 500.343 464.556C498.046 463.717 496.455 463.805 494.555 462.965C489.872 460.845 484.393 457.973 480.019 456.205C479.312 456.249 478.561 456.338 477.854 456.382C474.805 455.675 472.242 455.145 469.282 454.791C468.089 454.659 466.631 453.863 465.703 453.598H460.754C456.557 452.759 451.697 452.671 447.057 452.803C446.571 452.626 446.129 452.405 445.687 452.229C442.595 453.201 435.26 452.184 431.372 453.422C424.037 455.763 415.819 457.31 408.705 460.182C407.468 460.447 406.187 460.712 404.949 460.977C403.889 461.419 402.873 462.656 401.945 463.186H400.575C401.061 463.275 400.178 464.468 399.957 464.556C396.201 465.837 392.401 467.075 388.601 468.356C386.083 469.77 384.581 471.891 382.018 473.525C381.046 472.774 380.118 474.409 379.632 474.1C377.953 474.409 376.053 476.177 374.286 476.884C371.546 477.944 368.983 478.297 367.128 479.269C366.332 479.535 365.537 479.8 364.742 480.065C364.477 479.888 364.212 479.667 363.946 479.49C361.826 480.816 359.263 481.169 356.789 482.274C351.221 484.748 347.598 485.588 340.485 486.074C337.48 486.251 334.166 485.411 331.913 484.66C330.808 484.748 329.659 484.792 328.555 484.881C325.904 484.572 323.253 484.218 320.602 483.909C315.344 482.583 310.572 480.551 305.888 478.739C303.635 477.856 302.928 478.342 300.94 477.325C300.144 477.193 299.349 477.06 298.554 476.928C296.521 476.088 294.444 475.16 292.765 474.321C291.793 474.056 290.777 473.791 289.805 473.525C284.945 470.079 279.687 466.721 274.296 464.379C270.762 462.833 267.58 462.258 264.178 460.624C262.897 459.828 261.66 459.033 260.378 458.238C256.358 456.868 251.674 456.117 247.079 454.659C244.649 453.731 242.174 452.803 239.7 451.875C238.286 451.566 238.375 452.317 237.137 452.052C234.133 451.478 230.51 451.389 227.991 450.859H216.857C216.592 450.771 208.55 450.505 207.534 450.859C207.357 450.903 206.739 451.522 206.341 451.433C204.75 451.168 197.637 453.112 195.383 454.217C192.688 454.791 189.948 455.41 187.253 456.028C182.879 457.221 178.107 458.989 174.13 460.977C172.231 461.949 170.728 463.982 168.961 464.954C165.868 466.677 163.261 467.649 160.036 469.328C158.445 470.123 156.899 472.686 154.689 472.112C153.894 472.377 154.468 472.333 154.071 472.686C153.231 474.498 149.211 475.205 147.532 476.265C140.109 480.816 131.007 481.876 122.258 484.616C119.386 485.499 115.63 484.041 113.686 484.616C111.963 485.146 108.959 485.058 107.324 483.82C106.705 484.439 105.335 484.262 104.319 483.997C101.58 483.379 98.8404 483.997 95.5707 483.202C93.0964 482.583 89.8268 482.539 87.8385 481.39H87.6175C85.9385 481.258 83.8619 479.844 82.448 478.828C81.5643 479.711 72.0205 475.205 69.502 474.056C68.795 474.012 68.0439 473.923 67.3369 473.879C64.5533 472.863 61.2395 472.023 58.4117 470.698C53.7282 468.533 48.8679 465.484 44.096 463.717C43.2123 463.407 42.0635 463.717 40.9147 463.142C37.7776 461.64 34.2429 460.182 31.1941 458.768C29.6919 458.061 28.2338 458.414 26.8199 457.752C24.2572 456.603 21.8713 454.924 19.2644 453.775C18.8225 453.908 18.3365 454.04 17.8947 454.173C16.304 453.731 14.7134 453.245 13.1227 452.759H9.76474C8.57176 452.45 6.45091 453.024 5.16957 452.759C3.49056 452.405 1.72319 452.229 0 452.14V459.74C3.18127 459.828 5.9207 460.093 6.98113 460.535C9.588 459.387 15.818 460.447 18.7342 461.728C20.5457 462.524 22.7108 464.114 24.4781 464.91C28.5873 466.721 32.5639 466.942 36.4079 468.886C36.8056 469.284 37.2032 469.681 37.6009 470.079C38.3962 470.388 39.6775 470.167 40.7822 470.698C46.261 473.26 52.005 475.249 57.3071 478.076C58.5443 478.386 59.8256 478.739 61.0628 479.049C64.5091 480.374 67.7788 481.125 71.181 482.627C79.8411 486.383 86.7339 489.388 97.0288 491.199H103.568C106.175 491.641 108.959 492.348 111.521 492.569C112.979 492.702 114.217 491.995 115.321 492.171C115.94 492.348 116.514 492.569 117.133 492.79C127.295 490.802 140.904 489.034 148.548 484.041C149.343 483.511 150.227 483.953 151.11 483.467C151.685 483.158 152.259 482.053 152.922 481.655C157.738 478.828 162.51 476.442 167.061 474.1C168.342 473.437 171.126 470.698 172.628 471.316C173.158 470.83 172.805 471.316 172.805 470.521C175.456 469.195 178.019 467.03 180.758 465.749C189.242 461.728 203.071 459.033 210.98 458.017C212.482 457.84 213.852 458.635 214.78 458.414C217.033 457.884 219.729 457.84 222.557 458.414C224.81 458.856 226.666 457.973 228.3 458.238C230.952 458.635 234.619 458.856 237.623 459.431H240.009C241.777 460.138 244.384 461.286 246.195 462.038C248.625 463.054 253.486 463.231 256.755 464.6C259.362 465.705 262.102 467.782 264.708 468.798C268.111 470.123 272.131 471.14 275.843 472.774C280.703 474.895 284.37 479.49 289.363 481.523C296.83 484.572 306.021 486.737 314.195 490.05C316.36 490.934 320.734 491.376 323.341 491.862C324.269 491.818 325.197 491.729 326.125 491.685C329.924 492.613 335.359 493.188 338.673 493.674C339.512 493.541 340.396 493.408 341.236 493.276C350.691 494.381 356.789 489.609 364.3 487.709C369.867 486.339 375.39 483.82 380.427 481.744C382.283 480.993 385.022 480.595 386.613 479.535C388.69 478.165 390.545 475.558 392.976 474.586C396.245 473.216 398.94 474.409 401.724 472.995C404.331 471.67 406.673 468.842 409.5 467.605C411.445 466.765 412.991 466.809 415.068 466.235C419.221 464.998 424.302 462.921 428.986 461.64C434.111 460.27 443.169 459.387 448.869 460.447C450.062 460.226 451.255 460.049 452.448 459.828C455.629 460.314 459.429 460.403 462.389 461.021C466.101 461.772 469.635 461.552 472.728 462.391C473.258 462.568 475.291 463.407 476.13 463.407C476.705 463.319 477.323 463.275 477.898 463.231C479.621 463.805 482.051 464.512 483.863 465.44C485.1 466.058 486.47 467.649 487.839 468.223C490.579 469.328 493.141 469.681 495.792 470.786C497.206 471.36 499.681 472.509 500.962 472.553C501.095 472.951 501.227 473.349 501.36 473.746H501.095Z"
       fill="#9A84D8"
       id="path383"
       style="fill:#7a36e6;fill-opacity:1" />
    <path
       d="M512.406 340.75C513.643 339.734 520.359 343.622 520.757 343.931C520.933 343.754 521.243 343.754 521.552 343.843C521.685 341.545 521.861 339.248 521.994 336.95C521.64 336.817 521.287 336.729 520.933 336.597C517.973 335.359 513.864 334.166 510.815 332.62C508.871 331.648 506.264 329.925 504.232 329.262C503.083 328.864 502.155 329.571 501.051 329.085C497.295 327.362 494.025 323.827 490.535 322.502C490.667 322.369 490.8 322.237 490.932 322.104C490.8 321.927 487.353 321.397 486.16 320.911C481.786 319.232 477.633 317.553 472.861 316.537C471.8 316.316 471.314 317.067 469.901 316.714C458.943 314.018 442.064 317.155 432.697 320.911C427.749 322.899 422.314 323.12 417.984 325.683C415.775 326.964 413.742 329.483 411.4 330.632C406.673 333.018 402.519 333.504 398.675 336.773C398.057 336.552 398.41 336.862 398.101 336.376C397.836 336.508 397.968 336.42 397.88 336.552C396.599 338.408 394.036 337.613 391.694 338.541C388.071 339.999 384.492 341.413 380.781 342.915C379.102 343.313 377.467 343.71 375.832 344.108C372.783 345.389 368.763 345.654 365.493 347.068C363.726 347.996 361.914 348.924 360.102 349.852C353.872 350.073 347.642 350.249 341.412 350.47C339.292 350.338 337.171 350.205 335.05 350.073C333.813 349.454 333.592 348.261 331.692 347.864C330.234 347.996 328.776 348.129 327.318 348.261C326.346 348.35 319.011 347.731 317.774 347.245C316.846 346.671 315.918 346.052 314.99 345.478C313.532 346.096 311.721 344.771 310.616 344.859C309.335 344.992 304.784 344.019 302.663 343.092C301.381 342.517 299.393 341.148 298.112 340.706H296.123C294.047 339.689 292.235 337.569 290.159 336.508C288.082 335.492 286.315 335.757 284.017 334.697V333.901H282.603C281.543 332.885 279.643 332.134 279.245 330.543C278.626 330.72 278.803 330.587 278.45 330.941C277.522 330.013 276.506 329.925 274.871 329.129C268.906 326.213 262.764 323.651 256.181 320.999C252.204 319.32 248.228 317.686 244.251 316.051C241.556 315.565 239.391 316.493 237.668 316.228C226.533 314.769 219.419 315.653 208.638 318.613C206.915 318.79 205.192 319.011 203.469 319.188C201.922 319.63 199.669 320.734 198.078 321.176C197.106 321.441 196.444 320.867 195.295 321.353C189.728 323.739 184.072 326.92 178.814 329.483C174.793 331.471 169.359 332.222 165.868 334.078C159.992 337.215 155.441 341.015 149.564 343.445C147.178 344.417 145.057 344.152 142.804 345.257C142.45 345.566 142.141 345.919 141.788 346.229C140.683 346.671 139.313 345.831 138.783 346.052C138.606 346.405 138.385 346.715 138.164 347.024C135.072 348.836 131.272 348.703 128.223 349.631C126.765 350.073 125.307 351.487 123.274 351.222H114.923C113.996 351.045 107.501 350.117 107.368 350.25C107.235 350.515 104.673 350.78 104.187 350.647C100.917 349.675 94.4219 348.659 91.2407 347.687C89.5175 347.157 86.0269 347.554 84.3037 347.068C82.0945 346.45 79.0458 345.522 76.7482 344.461C68.9276 340.838 60.7093 336.155 53.2863 331.339C51.3864 330.101 49.1772 329.881 47.1005 328.776C44.7146 327.45 42.6379 324.888 40.3403 323.43C38.838 322.458 36.9381 321.265 35.3917 320.646C34.0661 320.381 32.7406 320.116 31.4151 319.851C30.1337 319.232 28.4105 317.951 27.0408 317.465C24.3456 316.493 21.6503 316.935 19.7062 316.493C14.5808 315.344 10.5601 315.211 5.39049 314.107C3.44638 313.709 1.67901 313.709 0 313.709V320.293C4.10914 320.779 7.95318 321.441 10.9577 321.839H16.1273C17.4528 322.148 19.662 323.253 21.5178 323.253H23.9037C25.2293 324.048 26.5548 324.844 27.8803 325.639C30.5756 326.788 33.315 326.213 35.4358 327.848C38.352 330.057 41.3124 332.62 44.3611 334.785C46.3494 335.669 48.3377 336.508 50.326 337.348C57.9699 342.164 66.3207 346.759 74.1855 350.868C75.8203 351.708 77.7644 351.575 79.3551 352.061C80.8574 352.724 82.4038 353.387 83.9061 354.049H89.65C90.3128 354.226 91.55 355.11 92.036 355.242C94.1127 355.773 97.7358 355.021 100.21 355.817C104.01 357.098 107.854 357.054 112.317 357.805C112.935 357.672 113.51 357.54 114.128 357.407C116.779 358.026 122.126 358.424 125.66 357.628C133.702 355.773 141.39 353.254 147.929 350.073C150.624 348.747 153.541 348.659 156.059 347.289C159.196 345.61 162.201 342.915 165.603 341.324C170.11 339.248 173.998 338.187 178.107 336.155C178.682 336.464 181.023 335.624 181.686 335.183C184.558 333.15 188.004 332.576 191.451 330.808C203.557 324.534 222.115 319.806 235.591 322.458C237.314 322.413 239.037 322.325 240.761 322.281C245.488 323.076 249.111 324.888 252.911 326.655C255.076 327.671 257.197 327.583 258.655 328.246C261.041 329.262 264.046 331.029 266.211 332.399C266.918 332.841 268.641 332.664 269.79 333.194C271.424 333.901 274.031 335.448 275.357 336.155C276.903 337.613 278.406 339.071 279.952 340.529C282.25 341.943 285.696 341.634 288.303 343.092C289.893 344.019 291.263 346.096 292.854 346.847C294.931 347.377 296.963 347.908 299.04 348.438C300.1 348.88 301.426 349.808 302.398 350.25C304.519 350.515 306.639 350.78 308.76 351.045C310.351 351.796 312.869 352.017 314.327 352.635C315.299 353.033 315.962 354.005 316.934 354.226C321.264 355.154 324.181 354.845 327.892 355.419C328.908 355.331 329.88 355.287 330.852 355.242C336.508 356.921 344.815 357.098 350.559 356.833C352.149 356.745 354.491 357.363 355.11 357.231C355.817 357.098 356.965 356.612 357.716 356.656C358.512 356.745 359.307 356.789 360.102 356.833C363.416 355.861 366.598 354.447 369.47 353.077C370.972 353.961 371.944 351.973 373.667 352.061C375.655 352.149 384.89 348.438 386.967 347.466C390.987 345.654 395.45 344.903 399.294 343.313C400.619 342.915 401.945 342.517 403.271 342.12C404.552 341.192 405.789 339.645 407.247 338.938C409.766 337.701 413.124 337.303 415.819 335.757C418.293 334.343 420.547 331.692 423.374 330.587C430.665 327.715 437.558 326.302 445.025 324.799C448.206 324.181 456.071 321.751 459.12 322.59C462.831 323.651 468.928 322.369 474.054 324.004C475.556 324.49 477.103 325.55 478.428 325.992C480.461 326.655 484.039 326.39 485.984 327.804C486.028 328.069 486.116 328.334 486.16 328.599H487.972C489.563 329.571 490.358 330.853 492.523 331.383C492.479 331.648 492.39 331.913 492.302 332.178C492.435 332.046 492.567 331.913 492.7 331.78C494.025 332.222 494.82 333.945 495.881 334.343C500.167 336.111 503.569 336.066 506.618 338.541C507.104 338.01 511.831 340.352 512.362 340.75H512.406Z"
       fill="#9A84D8"
       id="path385"
       style="fill:#7a36e6;fill-opacity:1" />
    <path
       d="M509.313 179.558C513.864 182.651 518.901 186.054 524.203 189.058C524.159 186.186 524.07 183.358 524.026 180.486C522.657 179.691 521.199 178.41 520.094 177.57C519.034 177.172 517.973 176.775 516.913 176.377C514.394 174.875 511.478 172.842 509.357 170.81C508.827 171.694 505.601 169.352 504.983 168.822C504.939 168.601 504.85 168.424 504.806 168.203C501.05 164.845 496.499 161.841 490.711 159.852C489.386 159.41 487.486 159.72 486.116 159.278C485.321 158.969 483.244 158.703 482.36 158.085C481.035 157.201 479.488 155.522 477.412 154.904C467.559 151.943 455.806 151.015 447.013 152.915C444.274 153.49 441.843 152.253 439.634 152.739C435.525 153.622 427.13 154.373 423.949 155.699C421.033 156.317 418.116 156.892 415.2 157.51C409.014 160.117 403.182 161.443 397.306 164.492C394.213 166.082 388.955 170.28 385.199 170.236C385.287 170.368 385.332 170.501 385.376 170.633C383.343 172.003 380.471 172.842 379.013 174.831H378.218V175.626C377.069 176.421 375.965 177.217 374.816 178.012C373.711 178.586 372.253 178.454 371.237 179.205C369.911 180.177 368.939 182.077 367.437 182.961C364.521 184.684 360.677 185.568 357.893 186.761C356.744 187.247 355.375 186.761 353.917 187.158C352.945 187.423 351.177 188.616 349.94 188.528C348.173 188.439 345.61 188.219 343.975 188.528C343.18 188.749 342.384 188.926 341.589 189.146C340.087 188.97 338.54 188.749 336.994 188.528C329.041 190.207 317.641 186.23 310.351 183.579C300.94 180.177 292.545 178.189 284.326 173.638C283.089 172.489 281.808 171.384 280.526 170.236C275.843 167.894 271.955 165.552 267.227 163.254C265.239 161.796 260.157 160.427 256.888 158.703C253.353 156.804 247.167 153.18 243.367 152.164C235.193 149.911 220.391 149.778 211.731 150.971C209.655 151.06 207.622 151.104 205.546 151.192C203.16 152.385 199.89 153.49 197.592 154.771C194.853 156.362 184.823 157.996 183.674 160.913C181.244 159.941 174.793 166.436 171.347 166.878C171.082 168.071 167.9 170.28 166.973 170.059C165.515 170.677 162.819 174.433 161.008 175.405C153.894 179.293 146.78 184.109 139.357 186.937C137.06 187.821 133.172 188.042 130.432 188.528C128.93 188.793 128.002 187.865 126.058 188.351C109.931 192.107 90.9756 187.953 79.5318 183.182C76.0413 181.723 71.4461 180.972 68.3974 179.028C67.2927 178.321 66.144 176.686 65.0393 176.024C61.2395 173.903 57.5722 172.533 53.5072 170.456C52.005 169.705 50.5027 168.071 48.9121 167.275C47.3214 166.436 43.8309 165.95 43.1681 164.315C42.903 164.447 42.6379 164.58 42.3728 164.713C40.4287 162.989 37.9543 162.768 35.2149 161.752C33.0941 160.957 29.3384 159.499 27.4385 158.35C26.8199 157.776 26.2455 157.157 25.6711 156.583C23.4619 155.92 21.2969 155.257 19.0876 154.594C18.4691 154.241 18.69 154.594 18.5132 153.799C15.111 155.566 7.20205 151.546 2.38595 152.429C1.72319 152.562 0.883687 152.65 0 152.739V159.631C0.353475 159.631 0.706949 159.587 1.01624 159.587C6.4951 159.764 16.0831 160.382 20.8992 162.15C22.9317 162.901 24.0805 164.933 25.8478 165.905C27.2617 164.933 29.3826 167.275 30.2221 167.717C31.6802 168.468 34.2429 168.424 35.7893 169.131C38.0869 170.147 40.8263 172.003 43.1681 172.887C44.096 173.063 45.0238 173.284 45.9517 173.505C47.6307 174.742 49.2655 176.024 50.9004 177.261C52.8445 177.924 54.7444 178.586 56.6443 179.249C59.9581 181.149 62.8743 183.977 66.0114 186.009C67.0276 185.302 68.4415 187.202 69.1927 187.423C70.7391 187.865 76.3064 190.472 77.5435 190.384C79.2667 190.339 83.3317 192.593 85.4967 193.565C86.6455 194.095 88.1036 193.742 89.0756 193.963C90.8872 194.36 92.9639 195.023 94.4661 195.553C96.4102 195.73 98.3102 195.951 100.254 196.172C106.661 197.63 109.71 196.26 116.558 197.365C118.193 197.63 119.519 196.569 120.756 196.393C121.772 196.437 122.744 196.525 123.716 196.569C125.042 196.304 126.367 196.039 127.693 195.774C128.532 195.774 128.842 196.923 129.681 196.569C131.272 195.862 134.453 195.288 136.839 194.758H139.048C141.522 193.742 144.218 192.99 146.78 191.974C148.106 191.444 149.431 190.119 150.536 189.412C152.348 188.263 156.015 187.777 157.915 186.451C163.615 182.342 169.138 178.189 174.837 174.124C178.593 171.429 182.305 170.191 186.37 167.761C187.828 166.878 191.009 164.271 192.732 164.58C194.146 163.917 197.018 162.327 198.299 162.989C199.36 160.78 203.071 160.957 205.855 159.808C207.49 159.145 211.599 157.555 214.427 158.217C215.089 158.969 218.447 157.29 220.171 157.643C225.384 158.615 233.028 156.715 237.668 159.057C238.375 159.366 237.977 158.924 238.286 159.631C240.584 158.438 243.279 160.559 245.046 161.399C248.581 163.078 252.867 164.271 256.358 166.171C256.976 166.48 261.085 169.308 261.748 169.175C262.676 168.954 265.548 170.898 266.299 171.738C266.432 171.473 269.834 172.931 270.452 173.328C270.894 173.594 270.894 174.124 271.248 174.521C271.336 174.301 277.08 176.775 278.229 177.703C279.731 178.94 281.454 180.53 283.177 181.503C284.945 182.475 286.403 182.298 287.728 182.872C289.407 183.8 291.042 184.728 292.677 185.656C300.409 188.837 309.644 191.223 316.758 194.007C318.392 193.388 326.964 195.774 327.273 195.995C329.085 194.581 333.945 196.569 335.227 196.79C335.227 196.79 338.452 196.083 339.026 196.172C339.954 196.172 340.131 196.26 340.617 196.569V196.967C340.75 196.702 340.882 196.437 341.015 196.172C343.798 195.995 346.582 195.774 349.366 195.553C349.454 195.73 349.498 195.951 349.542 196.172C352.635 194.846 356.082 195.2 359.661 194.183C364.123 192.902 368.011 190.384 371.767 188.616C372.121 188.705 372.43 188.749 372.783 188.837C373.8 188.13 374.506 186.407 375.567 185.656C377.378 184.375 379.72 184.109 381.532 182.872C382.195 182.033 382.857 181.149 383.52 180.31C385.862 178.763 388.822 177.747 391.076 176.731C392.931 175.891 394.875 174.124 397.04 173.549C397.129 173.461 397.173 173.417 397.217 173.328V173.726C398.189 173.373 397.747 173.019 398.41 172.533C400.178 171.208 403.138 169.882 404.949 168.954C407.512 167.673 410.031 168.071 412.328 167.143C419.795 164.182 428.19 162.857 437.16 160.957C438.927 160.824 440.739 160.692 442.506 160.559C442.771 160.603 442.904 161.089 443.522 160.957C449.09 159.896 455.364 158.703 461.417 159.366C465.261 160.029 469.105 160.692 472.949 161.355V161.973C476.616 162.061 477.058 163.564 479.091 164.933C481.433 166.48 484.26 166.082 487.044 166.922C489.695 167.717 492.435 169.838 495.793 170.103C496.853 172.445 502.597 176.952 504.939 178.056C506.485 178.807 507.987 178.763 509.313 179.647V179.558Z"
       fill="#9A84D8"
       id="path387"
       style="fill:#7a36e6;fill-opacity:1" />
    <path
       d="M504.894 259.09C509.445 262.183 514.482 265.585 519.785 268.59C519.74 265.718 519.652 262.89 519.608 260.018C518.238 259.223 516.78 257.941 515.675 257.102C514.615 256.704 513.555 256.307 512.494 255.909C509.976 254.407 507.06 252.374 504.939 250.342C504.408 251.225 501.183 248.884 500.564 248.353C500.52 248.133 500.432 247.956 500.388 247.735C496.632 244.377 492.081 241.372 486.293 239.384C484.967 238.942 483.067 239.252 481.698 238.81C480.902 238.5 478.826 238.235 477.942 237.617C476.616 236.733 475.07 235.054 472.993 234.435C463.14 231.475 451.387 230.547 442.595 232.447C439.855 233.022 437.425 231.784 435.216 232.27C431.107 233.154 422.712 233.905 419.53 235.231C416.614 235.849 413.698 236.424 410.782 237.042C404.596 239.649 398.764 240.975 392.887 244.023C389.794 245.614 384.536 249.812 380.781 249.767C380.869 249.9 380.913 250.032 380.957 250.165C378.925 251.535 376.053 252.374 374.595 254.363H373.8V255.158C372.651 255.953 371.546 256.749 370.397 257.544C369.293 258.118 367.835 257.986 366.818 258.737C365.493 259.709 364.521 261.609 363.019 262.492C360.102 264.216 356.258 265.099 353.475 266.292C352.326 266.778 350.956 266.292 349.498 266.69C348.526 266.955 346.759 268.148 345.522 268.06C343.754 267.971 341.191 267.75 339.557 268.06C338.761 268.281 337.966 268.457 337.171 268.678C335.668 268.502 334.122 268.281 332.576 268.06C324.622 269.739 313.223 265.762 305.932 263.111C296.521 259.709 288.126 257.721 279.908 253.17C278.671 252.021 277.389 250.916 276.108 249.767C271.424 247.426 267.536 245.084 262.808 242.786C260.82 241.328 255.739 239.958 252.469 238.235C248.935 236.335 242.749 232.712 238.949 231.696C230.775 229.443 215.973 229.31 207.313 230.503C205.236 230.591 203.204 230.636 201.127 230.724C198.741 231.917 195.472 233.022 193.174 234.303C190.434 235.893 180.405 237.528 179.256 240.444C176.826 239.472 170.375 245.968 166.928 246.409C166.663 247.602 163.482 249.812 162.554 249.591C161.096 250.209 158.401 253.965 156.589 254.937C149.476 258.825 142.362 263.641 134.939 266.469C132.641 267.353 128.753 267.574 126.014 268.06C124.511 268.325 123.584 267.397 121.639 267.883C105.512 271.639 86.5571 267.485 75.1134 262.713C71.6228 261.255 67.0276 260.504 63.9789 258.56C62.8743 257.853 61.7255 256.218 60.6209 255.556C56.821 253.435 53.1537 252.065 49.0888 249.988C47.5865 249.237 46.0842 247.602 44.4936 246.807C42.903 245.968 39.4124 245.481 38.7496 243.847C38.4845 243.979 38.2194 244.112 37.9543 244.244C36.0102 242.521 33.5359 242.3 30.7965 241.284C28.6756 240.489 24.9199 239.031 23.02 237.882C22.4014 237.307 21.827 236.689 21.2526 236.114C19.0434 235.452 16.8784 234.789 14.6692 234.126C14.0506 233.773 14.2715 234.126 14.0948 233.331C10.6926 235.098 2.78359 231.077 -2.0325 231.961C-2.69527 232.094 -3.53477 232.182 -4.41846 232.27V239.163C-4.06498 239.163 -3.71151 239.119 -3.40222 239.119C2.07664 239.296 11.6646 239.914 16.4807 241.682C18.5132 242.433 19.662 244.465 21.4294 245.437C22.8433 244.465 24.9641 246.807 25.8036 247.249C27.2617 248 29.8244 247.956 31.3709 248.663C33.6684 249.679 36.4079 251.535 38.7496 252.418C39.6775 252.595 40.6054 252.816 41.5333 253.037C43.2123 254.274 44.8471 255.556 46.4819 256.793C48.426 257.455 50.3259 258.118 52.2259 258.781C55.5397 260.681 58.4559 263.509 61.5929 265.541C62.6092 264.834 64.0231 266.734 64.7742 266.955C66.3207 267.397 71.8879 270.004 73.1251 269.915C74.8483 269.871 78.9132 272.125 81.0782 273.097C82.227 273.627 83.6851 273.273 84.6572 273.494C86.4687 273.892 88.5454 274.555 90.0477 275.085C91.9918 275.262 93.8917 275.483 95.8358 275.704C102.243 277.162 105.291 275.792 112.14 276.897C113.775 277.162 115.1 276.101 116.337 275.925C117.354 275.969 118.326 276.057 119.298 276.101C120.623 275.836 121.949 275.571 123.274 275.306C124.114 275.306 124.423 276.455 125.263 276.101C126.853 275.394 130.034 274.82 132.42 274.29H134.63C137.104 273.273 139.799 272.522 142.362 271.506C143.687 270.976 145.013 269.65 146.118 268.943C147.929 267.795 151.596 267.309 153.496 265.983C159.196 261.874 164.719 257.721 170.419 253.656C174.175 250.96 177.886 249.723 181.951 247.293C183.409 246.409 186.59 243.803 188.314 244.112C189.728 243.449 192.6 241.858 193.881 242.521C194.941 240.312 198.653 240.489 201.436 239.34C203.071 238.677 207.18 237.086 210.008 237.749C210.671 238.5 214.029 236.821 215.752 237.175C220.966 238.147 228.61 236.247 233.249 238.589C233.956 238.898 233.558 238.456 233.868 239.163C236.165 237.97 238.861 240.091 240.628 240.931C244.163 242.61 248.449 243.803 251.939 245.702C252.558 246.012 256.667 248.84 257.33 248.707C258.257 248.486 261.129 250.43 261.881 251.27C262.013 251.005 265.415 252.463 266.034 252.86C266.476 253.125 266.476 253.656 266.829 254.053C266.918 253.832 272.662 256.307 273.81 257.235C275.313 258.472 277.036 260.062 278.759 261.034C280.526 262.006 281.984 261.83 283.31 262.404C284.989 263.332 286.624 264.26 288.259 265.188C295.991 268.369 305.225 270.755 312.339 273.539C313.974 272.92 322.546 275.306 322.855 275.527C324.667 274.113 329.527 276.101 330.808 276.322C330.808 276.322 334.034 275.615 334.608 275.704C335.536 275.704 335.713 275.792 336.199 276.101V276.499C336.331 276.234 336.464 275.969 336.596 275.704C339.38 275.527 342.164 275.306 344.947 275.085C345.035 275.262 345.08 275.483 345.124 275.704C348.217 274.378 351.663 274.732 355.242 273.715C359.705 272.434 363.593 269.915 367.349 268.148C367.702 268.236 368.011 268.281 368.365 268.369C369.381 267.662 370.088 265.939 371.148 265.188C372.96 263.906 375.302 263.641 377.113 262.404C377.776 261.565 378.439 260.681 379.102 259.841C381.443 258.295 384.404 257.279 386.657 256.262C388.513 255.423 390.457 253.656 392.622 253.081C392.71 252.993 392.755 252.949 392.799 252.86V253.258C393.771 252.904 393.329 252.551 393.992 252.065C395.759 250.739 398.719 249.414 400.531 248.486C403.094 247.205 405.612 247.602 407.91 246.674C415.377 243.714 423.772 242.389 432.741 240.489C434.509 240.356 436.32 240.224 438.088 240.091C438.353 240.135 438.485 240.621 439.104 240.489C444.671 239.428 450.945 238.235 456.999 238.898C460.843 239.561 464.687 240.224 468.531 240.886V241.505C472.198 241.593 472.64 243.096 474.672 244.465C477.014 246.012 479.842 245.614 482.626 246.454C485.277 247.249 488.016 249.37 491.374 249.635C492.434 251.977 498.178 256.483 500.52 257.588C502.067 258.339 503.569 258.295 504.894 259.179V259.09Z"
       fill="#9A84D8"
       id="path389"
       style="fill:#7a36e6;fill-opacity:1" />
    <path
       d="M501.271 16.0219C505.292 16.0219 507.766 18.673 510.638 19.7776C512.936 20.6613 515.587 20.8822 517.973 22.1636C519.564 23.0031 521.64 24.2844 523.673 25.389C525.749 23.2682 528.312 21.6775 531.14 20.6613C527.119 18.8497 523.319 16.9498 519.961 15.0057C518.724 14.2988 517.487 14.6522 516.206 14.0336C511.213 11.6477 505.778 8.8199 500.52 6.87579C498.223 6.03628 496.632 6.16884 494.732 5.28515C490.049 3.1643 484.57 0.292319 480.195 -1.47505C479.488 -1.43087 478.737 -1.3425 478.03 -1.29832C474.982 -2.00527 472.419 -2.53548 469.459 -2.88895C468.266 -3.02151 466.808 -3.81682 465.88 -4.08193H460.931C456.734 -4.92143 451.873 -5.0098 447.234 -4.87725C446.748 -5.05399 446.306 -5.27491 445.864 -5.45165C442.771 -4.47959 435.437 -5.49583 431.548 -4.25867C424.214 -1.9169 415.996 -0.370446 408.882 2.50154C407.645 2.76664 406.363 3.03175 405.126 3.29685C404.066 3.7387 403.05 4.97586 402.122 5.50607H400.752C401.238 5.59444 400.354 6.78742 400.133 6.87579C396.378 8.15713 392.578 9.39429 388.778 10.6756C386.259 12.0895 384.757 14.2104 382.195 15.8452C381.223 15.0941 380.295 16.7289 379.809 16.4196C378.13 16.7289 376.23 18.4963 374.462 19.2032C371.723 20.2636 369.16 20.6171 367.304 21.5892C366.509 21.8543 365.714 22.1194 364.918 22.3845C364.653 22.2078 364.388 21.9868 364.123 21.8101C362.002 23.1356 359.44 23.4891 356.965 24.5937C351.398 27.068 347.775 27.9075 340.661 28.3936C337.657 28.5703 334.343 27.7308 332.09 26.9797C330.985 27.068 329.836 27.1122 328.732 27.1564C326.08 26.8471 323.429 26.4936 320.778 26.1843C315.52 24.8588 310.748 22.8263 306.065 21.0148C303.812 20.1311 303.105 20.6171 301.116 19.6009C300.321 19.4683 299.526 19.3358 298.73 19.2032C296.698 18.3637 294.621 17.4358 292.942 16.6405C291.97 16.3754 290.954 16.1103 289.982 15.8452C285.122 12.3988 279.864 9.04082 274.473 6.69905C270.938 5.1526 267.757 4.5782 264.355 2.94338C263.074 2.14806 261.836 1.35274 260.555 0.557425C256.534 -0.812289 251.851 -1.56342 247.256 -3.02151C244.825 -3.94938 242.351 -4.87725 239.877 -5.80512C238.463 -6.11441 238.551 -5.36328 237.314 -5.62838C234.31 -6.20278 230.686 -6.29115 228.168 -6.82136H217.033C216.768 -6.90973 208.727 -7.17483 207.711 -6.82136C207.534 -6.77718 206.915 -6.15859 206.518 -6.24696C204.927 -6.51207 197.813 -4.56796 195.56 -3.46335C192.865 -2.88895 190.125 -2.27037 187.43 -1.65179C183.056 -0.458814 178.284 1.30856 174.307 3.29685C172.407 4.26891 170.905 6.30139 169.138 7.27345C166.045 8.99664 163.438 9.96869 160.212 11.6477C158.622 12.443 157.075 15.0057 154.866 14.4313C154.071 14.6964 154.645 14.6522 154.248 15.0057C153.408 16.8173 149.387 17.5242 147.708 18.5846C140.285 23.1356 131.183 24.196 122.435 26.9355C119.563 27.8192 115.807 26.3611 113.863 26.9355C112.14 27.4657 109.135 27.3773 107.501 26.1402C106.882 26.7587 105.512 26.582 104.496 26.3169C101.757 25.6983 99.0171 26.3169 95.7475 25.5216C93.2731 24.903 90.0035 24.8588 88.0152 23.71H87.7943C86.1153 23.5775 84.0386 22.1636 82.6247 21.1473C81.741 22.031 72.1972 17.5242 69.6787 16.3754C68.9718 16.3312 68.2206 16.2429 67.5137 16.1987C64.7301 15.1824 61.4162 14.3429 58.5884 13.0174C53.9049 10.8524 49.0446 7.80366 44.2727 6.03628C43.389 5.72699 42.2402 6.03628 41.0914 5.46189C37.9543 4.0038 34.4196 2.50154 31.3709 1.08764C29.8686 0.380688 28.4105 0.734163 26.9966 0.0713978C24.4339 -1.07739 22.048 -2.7564 19.4411 -3.90519C18.9993 -3.77264 18.5132 -3.64009 18.0714 -3.50753C16.4808 -3.94938 14.8901 -4.43541 13.2995 -4.92143H9.94148C8.7485 -5.23072 6.62765 -4.65633 5.34631 -4.92143C3.49056 -5.18654 1.76737 -5.36328 0 -5.49583V2.10388C3.18127 2.19225 5.9207 2.45735 6.98113 2.8992C9.588 1.7504 15.818 2.81083 18.7342 4.09217C20.5457 4.88749 22.7108 6.47813 24.4781 7.27345C28.5873 9.085 32.5639 9.30593 36.4079 11.25C36.8056 11.6477 37.2032 12.0454 37.6009 12.443C38.3962 12.7523 39.6775 12.5314 40.7821 13.0616C46.261 15.6243 52.005 17.6126 57.3071 20.4404C58.5443 20.7497 59.8256 21.1031 61.0628 21.4124C64.5091 22.738 67.7788 23.4891 71.181 24.9914C79.8411 28.747 86.7339 31.7516 97.0288 33.5631H103.568C106.175 34.005 108.959 34.7119 111.521 34.9328C112.979 35.0654 114.217 34.3584 115.321 34.5352C115.94 34.7119 116.514 34.9328 117.133 35.1538C127.295 33.1655 140.904 31.3981 148.548 26.4053C149.343 25.8751 150.227 26.3169 151.11 25.8309C151.685 25.5216 152.259 24.417 152.922 24.0193C157.738 21.1915 162.51 18.8056 167.061 16.4638C168.342 15.801 171.126 13.0616 172.628 13.6802C173.158 13.1941 172.805 13.6802 172.805 12.8849C175.456 11.5593 178.019 9.39429 180.758 8.11295C189.242 4.09217 203.071 1.39693 210.98 0.380688C212.482 0.203951 213.852 0.999269 214.78 0.778347C217.033 0.248136 219.729 0.203951 222.557 0.778347C224.81 1.22019 226.666 0.336504 228.3 0.60161C230.952 0.999269 234.619 1.22019 237.623 1.79459H240.009C241.777 2.50154 244.384 3.65033 246.195 4.35728C248.625 5.37352 253.486 5.55026 256.755 6.91997C259.362 8.02458 262.102 10.1012 264.708 11.1175C268.111 12.443 272.131 13.4593 275.843 15.0941C280.703 17.2149 284.37 21.8101 289.363 23.8426C296.83 26.8913 306.021 29.0563 314.195 32.3702C316.36 33.2538 320.734 33.6957 323.341 34.1817C324.269 34.1375 325.197 34.0492 326.125 34.005C329.924 34.9328 335.359 35.5072 338.673 35.9933C339.512 35.8607 340.396 35.7282 341.236 35.5956C350.691 36.7002 356.789 31.9283 364.3 30.0284C369.867 28.6587 375.39 26.1402 380.427 24.0635C382.283 23.3124 385.022 22.9147 386.613 21.8543C388.69 20.4846 390.545 17.8777 392.976 16.9056C396.245 15.5359 398.94 16.7289 401.724 15.315C404.331 13.9895 406.673 11.1617 409.5 9.92451C411.445 9.085 412.991 9.12919 415.068 8.55479C419.221 7.31763 424.302 5.24097 428.986 3.95962C434.111 2.58991 443.169 1.70622 448.869 2.76664C450.062 2.54572 451.255 2.36898 452.448 2.14806C455.629 2.63409 459.429 2.72246 462.389 3.34104C466.101 4.09217 469.635 3.87125 472.728 4.71075C473.258 4.88749 475.291 5.72699 476.13 5.72699C476.705 5.63862 477.323 5.59444 477.898 5.55026C479.621 6.12465 482.051 6.8316 483.863 7.75947C485.1 8.37805 486.47 9.96869 487.839 10.5431C490.579 11.6477 493.141 12.0012 495.792 13.1058C497.206 13.6802 499.681 14.829 500.962 14.8732C501.095 15.2708 501.227 15.6685 501.36 16.0661L501.271 16.0219Z"
       fill="#9A84D8"
       id="path391"
       style="fill:#7a36e6;fill-opacity:1" />
    <path
       d="M504.939 89.3899C505.469 89.4783 505.999 89.5225 506.529 89.5667C508.429 90.4945 511.213 91.6875 513.069 92.9689C515.41 94.5595 518.327 96.3269 521.199 97.564C521.066 94.8246 520.933 92.0852 520.845 89.3457C519.387 88.5062 517.885 87.6667 516.471 86.8272C514.748 85.7668 512.848 85.5017 511.08 84.618C506.839 82.5414 502.199 79.5368 497.56 77.6369C495.218 76.6648 493.23 76.8416 490.8 76.0463C485.63 74.3672 480.019 72.5557 474.098 71.2743C472.11 71.3185 470.121 71.4069 468.133 71.4511C465.305 71.4069 462.433 71.3185 459.606 71.2743C458.589 71.5394 457.617 71.8046 456.601 72.0697C451.122 71.7604 443.522 72.5999 439.325 74.8533C438.662 74.4114 432.83 75.5602 430.974 76.0463C429.339 76.4881 429.118 77.5485 428.014 78.0346C427.351 78.0787 426.688 78.1671 426.025 78.2113C421.695 80.1112 418.116 80.5531 413.698 82.8065C396.113 91.555 381.532 102.159 360.633 107.638H352.856C350.912 108.301 349.321 108.566 347.289 108.831C344.24 109.229 339.689 107.726 337.127 107.019C334.078 106.578 331.029 106.092 327.98 105.65C324.446 104.722 320.734 103.175 317.42 102.071C315.211 101.32 313.753 101.717 311.455 100.878C303.812 98.0059 296.521 95.1781 288.789 91.7317C285.387 90.2294 282.25 87.7109 279.245 85.7668C275.622 83.425 271.203 82.0553 267.139 80.4205C262.411 78.4764 257.02 74.8091 251.453 72.865C247.697 71.5395 240.893 71.5395 236.961 71.0534C224.766 69.5953 213.41 72.865 204.353 75.8253C199.404 77.1067 194.411 78.3438 189.418 79.581C188.446 80.1112 187.783 80.9949 187.032 81.3926C186.635 81.3484 186.237 81.26 185.839 81.2158C184.425 81.6577 182.305 82.7181 180.891 83.6018C180.228 83.646 179.565 83.7343 178.902 83.7785C178.726 84.1762 178.505 84.5738 178.284 84.9715C176.472 86.2087 174.882 86.297 173.512 87.976C173.247 87.8877 172.982 87.8435 172.717 87.7993C171.479 88.3295 169.933 88.8597 168.342 89.5667C167.149 90.1411 165.691 91.4224 164.587 91.9526C161.936 93.234 158.931 93.5874 156.236 95.3548C154.778 96.2827 153.408 97.7408 152.082 98.7128C151.287 99.2872 149.785 99.2872 149.299 99.5081C148.194 100.215 147.045 100.966 145.941 101.717C140.109 103.927 132.818 106.18 128.621 106.666C123.407 107.329 115.056 108.743 109.533 107.682C106.661 106.931 103.833 106.224 101.005 105.473C97.9567 104.678 95.7475 105.296 93.2731 103.882C87.1315 100.392 79.4876 97.9175 73.7878 93.9409C73.2134 93.8967 72.5949 93.8084 72.0205 93.7642C69.6345 92.4386 66.7184 91.5108 64.244 89.9643C61.0628 88.0202 57.1304 84.4855 54.1258 83.2041C52.7119 82.5855 45.7308 79.3159 45.3773 78.2555C43.4774 78.7857 33.9778 74.6765 31.2383 73.6603C24.4339 71.1418 13.9623 70.8767 7.77644 72.0697C5.56723 72.5115 2.69524 72.2906 0 72.4231V79.5368C5.25794 78.2113 13.2553 78.0346 18.69 78.8741C19.9713 78.8299 21.2085 78.7415 22.4456 78.6973C41.71 81.8786 57.3955 94.1176 73.5227 102.557C74.3622 102.115 80.3271 105.871 81.2992 105.738C82.8456 105.517 90.357 110.422 92.6546 111.482C94.0243 111.659 95.4382 111.88 96.8521 112.056C101.801 113.382 109.975 113.824 114.747 115.017C116.602 115.503 118.591 114.045 120.712 114.222C124.202 114.487 129.769 114.222 134.055 112.852C134.541 112.719 141.213 110.245 141.213 110.245C146.957 109.626 153.496 105.075 158.136 101.894C159.108 101.187 160.522 101.32 161.317 100.922C163.526 99.8174 166.442 97.564 169.27 96.5478H170.684C172.496 95.6199 174.617 93.8967 176.472 92.9689C178.24 92.0852 180.581 91.6875 181.819 90.7596C182.879 89.9643 184.072 88.7272 185.397 88.1528C195.118 84.132 206.076 82.8506 216.238 78.7857C218.006 78.0787 220.789 79.2275 222.424 78.6089C227.461 76.6648 233.779 77.4601 238.33 78.2113C239.656 78.1229 240.981 78.0787 242.307 78.0346C244.87 78.5648 247.742 78.6531 249.465 79.2275C253.883 80.7298 257.683 82.9832 261.571 84.9715C262.543 85.4575 263.515 85.3691 264.355 85.9877C264.797 86.297 265.592 87.2249 266.343 87.5784C268.287 88.4621 269.701 88.4621 271.513 89.3899C273.81 90.5387 277.345 92.2619 279.289 93.5874C280.703 94.5595 281.984 96.2385 284.061 96.5478V97.5198C285.563 97.1222 288.303 98.9337 289.805 99.5081C294.179 101.143 297.582 103.175 302.133 104.854C306.551 106.533 314.327 107.992 319.232 110.643C320.292 110.687 321.353 110.775 322.413 110.819C325.197 111.703 329.792 112.896 332.752 113.382C333.017 113.249 333.283 113.117 333.548 112.984C337.657 114.708 349.056 116.121 354.005 114.973C357.54 114.177 360.633 114.531 364.344 113.382C364.874 113.426 365.405 113.515 365.935 113.559C372.032 109.847 380.383 107.903 387.011 104.81C390.413 103.22 395.362 100.834 399.161 98.6686C401.061 97.564 402.917 95.7083 404.905 94.692C406.717 93.7642 408.528 93.72 410.296 92.7038C414.14 90.4945 418.647 87.49 423.021 85.9435C424.126 85.5459 426.202 85.1482 427.395 84.7506C427.837 84.8831 428.323 85.0157 428.765 85.1482C429.693 84.8389 431.107 84.0436 432.344 83.7785C434.023 83.6018 435.658 83.3809 437.292 83.2041C438.971 82.4972 440.12 81.3042 441.843 80.6414C445.29 79.2717 447.543 80.4647 451.564 79.4484C454.569 78.6973 458.633 79.3159 461.329 78.8741C463.891 78.4322 467.338 77.9904 470.475 78.2997C476.661 78.8741 487.53 81.26 494.113 84.6622H496.279C497.471 85.104 499.46 85.7226 500.653 86.4738C502.111 87.3574 503.746 88.4621 505.027 89.4341L504.939 89.3899Z"
       fill="#9A84D8"
       id="path393"
       style="fill:#7a36e6;fill-opacity:1" />
  </g>
</svg>
