<svg width="300" height="179" viewBox="0 0 300 179" fill="none" xmlns="http://www.w3.org/2000/svg">
<rect width="300" height="179" rx="8" fill="url(#paint0_radial_7651_6510)"/>
<path d="M8.64258 0V81.5164L11.8833 89.5L8.64258 98.3239V179" stroke="url(#paint1_linear_7651_6510)" stroke-width="2"/>
<path d="M41.8944 22.8835C41.8944 22.6027 41.9437 22.3279 42.0422 22.0914C42.1552 21.8372 42.2972 21.6096 42.4827 21.4234C42.671 21.2313 42.8855 21.0806 43.1318 20.9771C43.6331 20.7555 44.2213 20.7555 44.7371 20.9801C44.9776 21.0806 45.1978 21.2313 45.3804 21.4293C45.5658 21.6096 45.7107 21.8372 45.8179 22.0973C45.9252 22.3367 45.9802 22.6027 45.9802 22.8835V26.7967H47.7652V22.8835C47.7652 22.3426 47.658 21.8343 47.461 21.3761C47.2697 20.8973 46.9886 20.4806 46.6409 20.1407C46.2932 19.7831 45.8817 19.4964 45.4181 19.3043C44.5198 18.8905 43.3839 18.8846 42.4479 19.3043C41.9872 19.4964 41.5728 19.7831 41.2164 20.1407C40.8802 20.4835 40.6078 20.8973 40.4021 21.3761C40.2109 21.8372 40.1152 22.3426 40.1152 22.8835V26.7967H41.8915V22.8835H41.8944Z" fill="white"/>
<path d="M39.0139 20.1409C38.6343 19.7596 38.2083 19.467 37.736 19.2867C36.8029 18.8966 35.8003 18.8966 34.8557 19.2867C34.3891 19.467 33.9632 19.7596 33.5922 20.1409C33.2213 20.5192 32.9374 20.9508 32.7606 21.4237C32.5723 21.9025 32.4824 22.3901 32.4824 22.8837C32.4824 23.3832 32.5723 23.8739 32.7606 24.3615C32.9374 24.8344 33.2213 25.2689 33.5922 25.6502C33.9545 26.0196 34.3717 26.3063 34.8325 26.5014C35.299 26.6965 35.7887 26.797 36.3045 26.797C36.8145 26.797 37.3071 26.6994 37.7679 26.5014C38.2315 26.3063 38.6488 26.0196 39.0139 25.6502L39.6311 25.0118L38.3706 23.7261L37.7505 24.3586C37.4259 24.6955 37.0521 24.8876 36.6175 24.9586C36.5218 24.9733 36.4175 24.9822 36.3219 24.9822C36.0814 24.9822 35.8583 24.9379 35.6293 24.8522L39.634 20.7705L39.0139 20.1409ZM36.4929 21.403L34.3688 23.5694C34.2848 23.3537 34.2471 23.1202 34.2471 22.8837C34.2471 22.3044 34.4471 21.8227 34.8528 21.4089C35.1744 21.0838 35.5453 20.8916 35.9626 20.8237C36.0669 20.8089 36.1712 20.803 36.2755 20.803C36.5131 20.803 36.745 20.8444 36.971 20.9271C36.8435 21.0601 36.6812 21.2197 36.4929 21.403Z" fill="white"/>
<path d="M27.2228 21.4237C27.4257 21.2256 27.6546 21.0719 27.9009 20.9655C28.4022 20.7616 28.9354 20.7616 29.4367 20.9655C29.6888 21.0719 29.9148 21.2286 30.1177 21.4296L30.7639 22.0621L32.007 20.7734L31.3811 20.1409C31.0044 19.7596 30.5726 19.467 30.1061 19.2867C29.1759 18.8966 28.1675 18.8966 27.2228 19.2867C26.7621 19.467 26.3361 19.7596 25.9594 20.1409C25.5827 20.5133 25.3074 20.9508 25.1249 21.4237C24.9423 21.9025 24.8496 22.399 24.8496 22.9044C24.8496 23.398 24.9423 23.8916 25.1249 24.3615C25.3074 24.8344 25.5798 25.2719 25.9594 25.6502C26.3303 26.0285 26.7563 26.3211 27.2257 26.5191C27.6981 26.7053 28.1878 26.794 28.6688 26.794C29.1527 26.794 29.6337 26.7053 30.0974 26.5191C30.5726 26.3182 31.0015 26.0255 31.3782 25.6502L32.0041 25.0118L30.761 23.7261L30.109 24.3586C29.9235 24.5684 29.6946 24.7192 29.4512 24.8197C29.202 24.9231 28.9412 24.9733 28.6659 24.9733C28.098 24.9733 27.6227 24.7753 27.2199 24.3556C27.0142 24.1487 26.8693 23.9211 26.7679 23.664C26.6665 23.4098 26.6143 23.1468 26.6143 22.8778C26.6143 22.6148 26.6665 22.3488 26.7679 22.0916C26.8664 21.8493 27.02 21.6276 27.2228 21.4237Z" fill="white"/>
<path d="M66.4955 20.8119H71.0739V18.9912H66.4955C66.1681 18.9912 65.8551 19.0592 65.5625 19.1863C65.2843 19.3075 65.038 19.4759 64.8293 19.6858C64.6149 19.9015 64.4468 20.1616 64.3193 20.4572C64.1976 20.7409 64.1426 21.0572 64.1426 21.3882C64.1426 21.7192 64.1976 22.0355 64.3193 22.3399C64.4468 22.6207 64.6149 22.8749 64.8322 23.1025C65.0351 23.3153 65.2843 23.4926 65.5625 23.6227C65.8551 23.7409 66.1681 23.8029 66.4955 23.8029H69.4251C69.6019 23.8029 69.7352 23.8591 69.8482 23.9685C69.9583 24.0808 70.0105 24.2138 70.0105 24.3822C70.0105 24.5596 69.9583 24.6985 69.8482 24.8108C69.7352 24.9172 69.6019 24.9763 69.4251 24.9763H64.8612V26.794H69.4251C69.7526 26.794 70.0597 26.732 70.3437 26.6167C70.6306 26.4866 70.8885 26.3093 71.0913 26.0965C71.3173 25.8719 71.4854 25.6118 71.6042 25.328C71.7317 25.0325 71.7955 24.7103 71.7955 24.3822C71.7955 24.0483 71.7288 23.732 71.6042 23.4512C71.4854 23.1527 71.3173 22.8897 71.0913 22.6798C70.8856 22.4641 70.6306 22.2956 70.3437 22.1833C70.0626 22.0503 69.7555 21.9823 69.4251 21.9823H66.4955C66.3333 21.9823 66.1971 21.9261 66.0956 21.8168C65.9826 21.6926 65.9305 21.5567 65.9305 21.3853C65.9305 21.2227 65.9826 21.0867 66.087 20.9744C66.1971 20.8651 66.3275 20.8119 66.4955 20.8119Z" fill="white"/>
<path d="M50.6799 21.4237C50.8856 21.2256 51.1087 21.0719 51.355 20.9655C51.8592 20.7616 52.3982 20.7616 52.8966 20.9655C53.1487 21.0719 53.3747 21.2256 53.5776 21.4296L54.218 22.0621L55.4582 20.7734L54.8352 20.1409C54.4614 19.7596 54.0296 19.467 53.5602 19.2867C52.6271 18.8966 51.6274 18.8966 50.6857 19.2867C50.2133 19.467 49.7874 19.7596 49.4136 20.1409C49.0398 20.5192 48.7616 20.9508 48.5819 21.4237C48.3994 21.9025 48.3066 22.399 48.3066 22.9044C48.3066 23.398 48.4023 23.8916 48.5819 24.3615C48.7616 24.8344 49.0398 25.2689 49.4136 25.6502C49.7845 26.0285 50.2104 26.3211 50.6857 26.5191C51.1551 26.7053 51.6448 26.794 52.1316 26.794C52.6126 26.794 53.0966 26.7053 53.5573 26.5191C54.0296 26.3182 54.4614 26.0285 54.8352 25.6502L55.4582 25.0118L54.218 23.7261L53.5718 24.3586C53.3805 24.5684 53.1603 24.7192 52.9111 24.8197C52.659 24.9231 52.3953 24.9733 52.1287 24.9733C51.555 24.9733 51.0855 24.7753 50.677 24.3556C50.477 24.1487 50.3292 23.9211 50.2249 23.664C50.1235 23.4098 50.0713 23.1468 50.0713 22.8778C50.0713 22.6148 50.1235 22.3488 50.2249 22.0916C50.335 21.8493 50.4799 21.6276 50.6799 21.4237Z" fill="white"/>
<path d="M78.2106 22.8838C78.2106 23.1675 78.1526 23.4453 78.0425 23.7025C77.9469 23.9596 77.7991 24.1842 77.6049 24.3793C77.4253 24.5625 77.2108 24.7133 76.9587 24.8226C76.4574 25.0295 75.846 25.0236 75.3621 24.8285C75.1187 24.7133 74.8956 24.5596 74.7101 24.3852C74.5305 24.1872 74.3798 23.9596 74.2726 23.7025C74.1711 23.4512 74.1219 23.1764 74.1219 22.8838V18.9912H72.334V22.8838C72.334 23.4187 72.4354 23.9271 72.6267 24.4029C72.8266 24.8729 73.1077 25.2955 73.4438 25.6502C73.7944 26.0078 74.2059 26.2945 74.6753 26.5014C75.1361 26.6965 75.6345 26.797 76.1532 26.797C76.6893 26.797 77.1848 26.6965 77.6397 26.5014C78.1005 26.2945 78.509 26.0108 78.8654 25.6502C79.2161 25.2926 79.4914 24.8699 79.6826 24.4029C79.8883 23.9271 79.9927 23.4217 79.9927 22.8838V18.9912H78.2048V22.8838H78.2106Z" fill="white"/>
<path d="M86.4137 16V18.9911H84.3824C83.8579 18.9911 83.3566 19.0975 82.8987 19.3044C82.4293 19.4994 82.0178 19.7832 81.6672 20.1408C81.3166 20.4807 81.0384 20.8974 80.8298 21.3763C80.6385 21.8373 80.5371 22.3427 80.5371 22.8836C80.5371 23.4186 80.6385 23.927 80.8298 24.4028C81.0384 24.8727 81.3137 25.2954 81.6614 25.6501C82.0149 26.0077 82.4264 26.2944 82.8958 26.5013C83.3508 26.6964 83.855 26.7968 84.3795 26.7968C84.8982 26.7968 85.3937 26.6964 85.8631 26.5013C86.3267 26.2944 86.7353 26.0107 87.0744 25.6501C87.425 25.2924 87.6945 24.8727 87.8857 24.4028C88.0914 23.927 88.1929 23.4215 88.1929 22.8836V16H86.4137ZM86.4137 22.8836C86.4137 23.1703 86.3586 23.4452 86.2456 23.7023C86.1442 23.9595 86.0022 24.1841 85.8081 24.3792C85.6284 24.5624 85.4082 24.7131 85.159 24.8225C84.6837 25.0294 84.0723 25.0235 83.5797 24.8284C83.3247 24.7131 83.1016 24.5594 82.9132 24.3851C82.7336 24.187 82.5858 23.9595 82.4786 23.7023C82.3772 23.4511 82.3279 23.1762 82.3279 22.8836C82.3279 22.5969 82.3772 22.328 82.4786 22.0915C82.5858 21.8373 82.7307 21.6098 82.9132 21.4235C83.1016 21.2314 83.3276 21.0837 83.5797 20.9772C83.8289 20.8708 84.1013 20.8117 84.3795 20.8117H86.4108V22.8836H86.4137V22.8836Z" fill="white"/>
<path d="M58.2818 26.5018C58.7397 26.6969 59.2381 26.7974 59.7597 26.7974C60.2899 26.7974 60.7883 26.6998 61.2491 26.5018C61.704 26.2949 62.1213 26.0082 62.4661 25.6506C62.8168 25.2929 63.0949 24.8703 63.2862 24.4033C63.4948 23.9275 63.5933 23.4191 63.5933 22.8841C63.5933 22.3432 63.4919 21.8349 63.2862 21.3768C63.0949 20.8979 62.8197 20.4842 62.4661 20.1413C62.1213 19.7837 61.704 19.497 61.2491 19.3108C60.3508 18.894 59.2149 18.8852 58.2818 19.3049C57.8124 19.497 57.4038 19.7837 57.0474 20.1413C56.7113 20.4842 56.4331 20.8979 56.2302 21.3768C56.0419 21.8378 55.9434 22.3432 55.9434 22.8841C55.9434 23.4191 56.0419 23.9275 56.2302 24.4033C56.4331 24.8732 56.7055 25.2959 57.0474 25.6506C57.4038 26.0082 57.8095 26.2949 58.2818 26.5018ZM57.8588 22.092C57.9689 21.8378 58.1167 21.6103 58.2963 21.424C58.4847 21.2319 58.7078 21.0842 58.9628 20.9778C59.2149 20.8713 59.4786 20.8122 59.7597 20.8122C60.0407 20.8122 60.3073 20.8713 60.5594 20.9807C60.8057 21.0842 61.026 21.2349 61.2085 21.43C61.3998 21.6132 61.5389 21.8378 61.6432 22.0979C61.7504 22.3373 61.8054 22.6033 61.8054 22.8841C61.8054 23.1679 61.7504 23.4486 61.6403 23.7028C61.5389 23.96 61.394 24.1846 61.2027 24.3797C61.0231 24.5629 60.8057 24.7107 60.5565 24.823C60.0552 25.0299 59.4496 25.024 58.957 24.8289C58.7049 24.7136 58.476 24.56 58.2963 24.3856C58.1138 24.1846 57.966 23.96 57.853 23.7028C57.7544 23.4516 57.7023 23.1767 57.7023 22.8841C57.711 22.6033 57.7602 22.3344 57.8588 22.092Z" fill="white"/>
<path d="M25.1446 36.5177C25.6922 36.8192 26.4543 37.0527 27.3323 37.0527C28.0046 37.0527 28.6421 36.9138 28.6421 36.2635C28.6421 34.7532 24.8809 35.7049 24.8809 32.7523C24.8809 30.7986 26.7499 30.2666 28.3436 30.2666C29.1057 30.2666 29.8591 30.3819 30.3952 30.5681L30.259 32.2409C29.7143 31.9868 29.097 31.8685 28.4943 31.8685C27.9582 31.8685 27.0715 31.9158 27.0715 32.6252C27.0715 33.9375 30.8299 33.0567 30.8299 35.9827C30.8299 38.0871 29.097 38.6546 27.3323 38.6546C26.5934 38.6546 25.669 38.5393 24.962 38.3059L25.1446 36.5177Z" fill="white"/>
<path d="M36.5461 34.1951C36.1694 33.9616 35.7927 33.8582 35.303 33.8582C34.4134 33.8582 33.7296 34.4848 33.7296 35.5311C33.7296 36.4946 34.5264 37.1241 35.416 37.1241C35.8826 37.1241 36.3491 37.0207 36.691 36.8345L36.7374 38.3921C36.2245 38.5665 35.6102 38.6581 35.0625 38.6581C33.1037 38.6581 31.6113 37.4965 31.6113 35.4985C31.6113 33.4887 33.1037 32.3242 35.0625 32.3242C35.6768 32.3242 36.2245 32.4277 36.691 32.6612L36.5461 34.1951Z" fill="white"/>
<path d="M37.2598 35.4956C37.2598 33.4858 38.7521 32.3213 40.7109 32.3213C42.6698 32.3213 44.165 33.4828 44.165 35.4956C44.165 37.4936 42.6727 38.6581 40.7109 38.6581C38.7521 38.6581 37.2598 37.4936 37.2598 35.4956ZM42.0439 35.4956C42.0439 34.5882 41.6556 33.7873 40.7109 33.7873C39.7663 33.7873 39.378 34.5882 39.378 35.4956C39.378 36.3912 39.7663 37.1921 40.7109 37.1921C41.6585 37.1921 42.0439 36.3912 42.0439 35.4956Z" fill="white"/>
<path d="M44.5664 32.4628H45.7748V31.1033L47.7916 30.4648V32.4628H49.2259V33.9259H47.7916V36.1574C47.7916 36.8903 47.9625 37.2628 48.6116 37.2628C48.8174 37.2628 49.0318 37.2155 49.2375 37.18L49.3071 38.5396C48.9188 38.5869 48.5305 38.6548 48.0205 38.6548C46.1862 38.6548 45.7429 37.8302 45.7429 36.3879V33.9229H44.5693V32.4628H44.5664V32.4628Z" fill="white"/>
<path d="M52.3785 31.4754H50.3262V29.9414H52.3785V31.4754ZM50.3262 32.4625H52.3785V38.5186H50.3262V32.4625Z" fill="white"/>
<path d="M57.6044 38.5162C57.5928 38.1911 57.558 37.8778 57.558 37.5645H57.5348C57.0683 38.3212 56.4974 38.6581 55.6542 38.6581C54.4806 38.6581 53.4316 38.067 53.4316 36.7517C53.4316 34.9045 55.4021 34.6828 56.4974 34.6828C56.8278 34.6828 57.1929 34.7183 57.4537 34.7656C57.4421 33.941 56.8394 33.7193 56.0975 33.7193C55.4369 33.7193 54.7762 33.8464 54.2053 34.1715L54.1706 32.7528C54.9008 32.4513 55.6629 32.3213 56.5409 32.3213C58.0564 32.3213 59.3662 32.9833 59.3662 34.8306V37.0857C59.3662 37.5616 59.3894 38.0374 59.4792 38.5162H57.6044V38.5162ZM56.1903 37.2631C56.964 37.2631 57.4537 36.5419 57.4537 35.8325C57.1929 35.8207 56.8944 35.7971 56.5873 35.7971C55.8918 35.7971 55.3441 36.0188 55.3441 36.5981C55.347 37.0177 55.7121 37.2631 56.1903 37.2631Z" fill="white"/>
<path d="M60.6035 29.7998H62.6667V33.2401H62.6899C63.2144 32.5663 63.9098 32.3209 64.7299 32.3209C66.37 32.3209 67.2712 33.914 67.2712 35.377C67.2712 37.1652 66.3265 38.6548 64.5589 38.6548C63.6143 38.6548 62.7826 38.108 62.5189 37.4342H62.4957V38.5129H60.6035V29.7998ZM63.9098 33.9258C63.1564 33.9258 62.6551 34.5997 62.6551 35.5071C62.6551 36.3908 63.226 37.0529 63.9098 37.0529C64.6835 37.0529 65.1529 36.3908 65.1529 35.4243C65.1501 34.6234 64.7067 33.9258 63.9098 33.9258Z" fill="white"/>
<path d="M72.0575 38.5162C72.0459 38.1911 72.0111 37.8778 72.0111 37.5645H71.9879C71.5214 38.3212 70.9506 38.6581 70.1073 38.6581C68.9337 38.6581 67.8848 38.067 67.8848 36.7517C67.8848 34.9045 69.8552 34.6828 70.9506 34.6828C71.2809 34.6828 71.646 34.7183 71.9068 34.7656C71.8952 33.941 71.2925 33.7193 70.5507 33.7193C69.89 33.7193 69.2293 33.8464 68.6585 34.1715L68.6237 32.7528C69.3539 32.4513 70.116 32.3213 70.994 32.3213C72.5095 32.3213 73.8193 32.9833 73.8193 34.8306V37.0857C73.8193 37.5616 73.8425 38.0374 73.9323 38.5162H72.0575V38.5162ZM70.6434 37.2631C71.4171 37.2631 71.9068 36.5419 71.9068 35.8325C71.646 35.8207 71.3475 35.7971 71.0404 35.7971C70.3449 35.7971 69.7973 36.0188 69.7973 36.5981C69.8002 37.0177 70.1653 37.2631 70.6434 37.2631Z" fill="white"/>
<path d="M75.082 32.4631H76.9511V33.5804H76.9742C77.3857 32.7084 78.2058 32.3242 79.1388 32.3242C80.7557 32.3242 81.4048 33.4858 81.4048 34.7419V38.5192H79.3533V35.5902C79.3533 34.4493 78.965 34.068 78.4086 34.068C77.5654 34.068 77.1336 34.6621 77.1336 35.9626V38.5192H75.082V32.4631V32.4631Z" fill="white"/>
<path d="M82.6621 29.7998H84.7137V35.0076H84.7369L86.4465 32.4628H88.6894L86.6262 35.2411L88.8603 38.5159H86.377L84.7369 35.5189H84.7137V38.5159H82.6621V29.7998Z" fill="white"/>

<path d="M261.297 131.151H248.4V154.317H261.297V131.151Z" fill="#FF5F00"/>
<path d="M249.219 142.735C249.219 138.028 251.43 133.853 254.828 131.152C252.331 129.187 249.178 128 245.739 128C237.592 128 231 134.59 231 142.735C231 150.879 237.592 157.469 245.739 157.469C249.178 157.469 252.331 156.282 254.828 154.318C251.43 151.657 249.219 147.441 249.219 142.735Z" fill="#EB001B"/>
<path d="M278.697 142.735C278.697 150.879 272.106 157.469 263.958 157.469C260.519 157.469 257.367 156.282 254.869 154.318C258.308 151.616 260.478 147.441 260.478 142.735C260.478 138.028 258.267 133.853 254.869 131.152C257.367 129.187 260.519 128 263.958 128C272.106 128 278.697 134.631 278.697 142.735Z" fill="#F79E1B"/>
<!-- <path d="M25.078 147V137.13H29.362C30.4447 137.13 31.28 137.401 31.868 137.942C32.456 138.483 32.75 139.239 32.75 140.21C32.75 141.181 32.456 141.941 31.868 142.492C31.28 143.033 30.4447 143.304 29.362 143.304H26.87V147H25.078ZM26.87 141.89H29.082C30.37 141.89 31.014 141.33 31.014 140.21C31.014 139.099 30.37 138.544 29.082 138.544H26.87V141.89ZM35.9687 147.14C35.474 147.14 35.0307 147.047 34.6387 146.86C34.256 146.664 33.9527 146.403 33.7287 146.076C33.514 145.749 33.4067 145.381 33.4067 144.97C33.4067 144.466 33.5374 144.069 33.7987 143.78C34.06 143.481 34.4847 143.267 35.0727 143.136C35.6607 143.005 36.4494 142.94 37.4387 142.94H37.9287V142.646C37.9287 142.179 37.826 141.843 37.6207 141.638C37.4154 141.433 37.07 141.33 36.5847 141.33C36.202 141.33 35.81 141.391 35.4087 141.512C35.0074 141.624 34.6014 141.801 34.1907 142.044L33.6867 140.854C33.9294 140.686 34.214 140.541 34.5407 140.42C34.8767 140.289 35.2267 140.191 35.5907 140.126C35.964 140.051 36.314 140.014 36.6407 140.014C37.6394 140.014 38.3814 140.247 38.8667 140.714C39.352 141.171 39.5947 141.885 39.5947 142.856V147H37.9567V145.908C37.798 146.291 37.546 146.594 37.2007 146.818C36.8554 147.033 36.4447 147.14 35.9687 147.14ZM36.3327 145.936C36.79 145.936 37.168 145.777 37.4667 145.46C37.7747 145.143 37.9287 144.741 37.9287 144.256V143.948H37.4527C36.5754 143.948 35.964 144.018 35.6187 144.158C35.2827 144.289 35.1147 144.531 35.1147 144.886C35.1147 145.194 35.222 145.446 35.4367 145.642C35.6514 145.838 35.95 145.936 36.3327 145.936ZM43.8489 147.14C42.1689 147.14 41.3289 146.197 41.3289 144.312V140.154H43.0789V144.34C43.0789 144.825 43.1769 145.185 43.3729 145.418C43.5689 145.651 43.8816 145.768 44.3109 145.768C44.7776 145.768 45.1603 145.609 45.4589 145.292C45.7576 144.965 45.9069 144.536 45.9069 144.004V140.154H47.6569V147H45.9489V145.978C45.4916 146.753 44.7916 147.14 43.8489 147.14ZM51.8584 147.14C51.0464 147.14 50.4444 146.921 50.0524 146.482C49.6697 146.034 49.4784 145.381 49.4784 144.522V137.13H51.2284V144.438C51.2284 145.278 51.583 145.698 52.2924 145.698C52.395 145.698 52.4977 145.693 52.6004 145.684C52.703 145.675 52.801 145.656 52.8944 145.628L52.8664 147.014C52.5304 147.098 52.1944 147.14 51.8584 147.14ZM56.2031 147.14C55.7084 147.14 55.2651 147.047 54.8731 146.86C54.4904 146.664 54.1871 146.403 53.9631 146.076C53.7484 145.749 53.6411 145.381 53.6411 144.97C53.6411 144.466 53.7717 144.069 54.0331 143.78C54.2944 143.481 54.7191 143.267 55.3071 143.136C55.8951 143.005 56.6837 142.94 57.6731 142.94H58.1631V142.646C58.1631 142.179 58.0604 141.843 57.8551 141.638C57.6497 141.433 57.3044 141.33 56.8191 141.33C56.4364 141.33 56.0444 141.391 55.6431 141.512C55.2417 141.624 54.8357 141.801 54.4251 142.044L53.9211 140.854C54.1637 140.686 54.4484 140.541 54.7751 140.42C55.1111 140.289 55.4611 140.191 55.8251 140.126C56.1984 140.051 56.5484 140.014 56.8751 140.014C57.8737 140.014 58.6157 140.247 59.1011 140.714C59.5864 141.171 59.8291 141.885 59.8291 142.856V147H58.1911V145.908C58.0324 146.291 57.7804 146.594 57.4351 146.818C57.0897 147.033 56.6791 147.14 56.2031 147.14ZM56.5671 145.936C57.0244 145.936 57.4024 145.777 57.7011 145.46C58.0091 145.143 58.1631 144.741 58.1631 144.256V143.948H57.6871C56.8097 143.948 56.1984 144.018 55.8531 144.158C55.5171 144.289 55.3491 144.531 55.3491 144.886C55.3491 145.194 55.4564 145.446 55.6711 145.642C55.8857 145.838 56.1844 145.936 56.5671 145.936ZM67.9268 147V138.628H64.5388V137.13H73.1068V138.628H69.7188V147H67.9268ZM76.1023 147.14C75.393 147.14 74.777 146.995 74.2543 146.706C73.7316 146.417 73.3256 146.006 73.0363 145.474C72.747 144.933 72.6023 144.298 72.6023 143.57C72.6023 142.842 72.747 142.212 73.0363 141.68C73.3256 141.148 73.7316 140.737 74.2543 140.448C74.777 140.159 75.393 140.014 76.1023 140.014C76.8116 140.014 77.4276 140.159 77.9503 140.448C78.473 140.737 78.879 141.148 79.1683 141.68C79.4576 142.212 79.6023 142.842 79.6023 143.57C79.6023 144.298 79.4576 144.933 79.1683 145.474C78.879 146.006 78.473 146.417 77.9503 146.706C77.4276 146.995 76.8116 147.14 76.1023 147.14ZM76.1023 145.81C76.625 145.81 77.045 145.623 77.3623 145.25C77.6796 144.867 77.8383 144.307 77.8383 143.57C77.8383 142.823 77.6796 142.268 77.3623 141.904C77.045 141.531 76.625 141.344 76.1023 141.344C75.5796 141.344 75.1596 141.531 74.8423 141.904C74.525 142.268 74.3663 142.823 74.3663 143.57C74.3663 144.307 74.525 144.867 74.8423 145.25C75.1596 145.623 75.5796 145.81 76.1023 145.81ZM81.0467 147V140.154H82.7547V141.358C83.0907 140.546 83.8094 140.098 84.9107 140.014L85.4427 139.972L85.5547 141.456L84.5467 141.554C83.3987 141.666 82.8247 142.254 82.8247 143.318V147H81.0467ZM86.5291 147V140.154H88.2371V141.358C88.5731 140.546 89.2918 140.098 90.3931 140.014L90.9251 139.972L91.0371 141.456L90.0291 141.554C88.8811 141.666 88.3071 142.254 88.3071 143.318V147H86.5291ZM95.2762 147.14C94.5015 147.14 93.8342 146.995 93.2742 146.706C92.7142 146.417 92.2802 146.006 91.9722 145.474C91.6735 144.942 91.5242 144.312 91.5242 143.584C91.5242 142.875 91.6689 142.254 91.9582 141.722C92.2569 141.19 92.6629 140.775 93.1762 140.476C93.6989 140.168 94.2915 140.014 94.9542 140.014C95.9249 140.014 96.6902 140.322 97.2502 140.938C97.8195 141.554 98.1042 142.394 98.1042 143.458V143.976H93.2042C93.3349 145.199 94.0349 145.81 95.3042 145.81C95.6869 145.81 96.0695 145.754 96.4522 145.642C96.8349 145.521 97.1849 145.334 97.5022 145.082L97.9922 146.258C97.6655 146.529 97.2549 146.743 96.7602 146.902C96.2655 147.061 95.7709 147.14 95.2762 147.14ZM95.0242 141.204C94.5109 141.204 94.0955 141.363 93.7782 141.68C93.4609 141.997 93.2695 142.427 93.2042 142.968H96.6482C96.6109 142.399 96.4522 141.965 96.1722 141.666C95.9015 141.358 95.5189 141.204 95.0242 141.204ZM101.996 147.14C101.417 147.14 100.876 147.07 100.372 146.93C99.8681 146.79 99.4481 146.589 99.1121 146.328L99.5601 145.18C99.9054 145.413 100.293 145.595 100.722 145.726C101.151 145.847 101.581 145.908 102.01 145.908C102.458 145.908 102.789 145.833 103.004 145.684C103.228 145.525 103.34 145.32 103.34 145.068C103.34 144.676 103.051 144.424 102.472 144.312L101.072 144.046C99.8867 143.822 99.2941 143.206 99.2941 142.198C99.2941 141.75 99.4154 141.363 99.6581 141.036C99.9101 140.709 100.255 140.457 100.694 140.28C101.133 140.103 101.637 140.014 102.206 140.014C102.691 140.014 103.158 140.084 103.606 140.224C104.054 140.355 104.437 140.555 104.754 140.826L104.278 141.974C104.007 141.75 103.681 141.573 103.298 141.442C102.925 141.311 102.565 141.246 102.22 141.246C101.763 141.246 101.422 141.325 101.198 141.484C100.983 141.643 100.876 141.853 100.876 142.114C100.876 142.525 101.142 142.777 101.674 142.87L103.074 143.136C103.681 143.248 104.138 143.453 104.446 143.752C104.763 144.051 104.922 144.452 104.922 144.956C104.922 145.637 104.656 146.174 104.124 146.566C103.592 146.949 102.883 147.14 101.996 147.14Z" fill="white"/> -->
<!-- <path d="M168.548 147V145.782H170.788V138.81L169.038 139.902L168.45 138.824L171.208 137.13H172.23V145.782H174.33V147H168.548ZM176.495 147V145.922L179.785 142.394C180.242 141.899 180.569 141.451 180.765 141.05C180.97 140.649 181.073 140.243 181.073 139.832C181.073 138.768 180.447 138.236 179.197 138.236C178.245 138.236 177.391 138.595 176.635 139.314L176.117 138.208C176.49 137.844 176.966 137.555 177.545 137.34C178.123 137.116 178.725 137.004 179.351 137.004C180.368 137.004 181.147 137.237 181.689 137.704C182.239 138.171 182.515 138.838 182.515 139.706C182.515 140.294 182.37 140.868 182.081 141.428C181.801 141.988 181.357 142.585 180.751 143.22L178.315 145.782H182.907V147H176.495ZM188.189 147.924L187.111 147.602L190.709 136.43L191.801 136.752L188.189 147.924ZM196.401 147V145.922L199.691 142.394C200.148 141.899 200.475 141.451 200.671 141.05C200.876 140.649 200.979 140.243 200.979 139.832C200.979 138.768 200.354 138.236 199.103 138.236C198.151 138.236 197.297 138.595 196.541 139.314L196.023 138.208C196.396 137.844 196.872 137.555 197.451 137.34C198.03 137.116 198.632 137.004 199.257 137.004C200.274 137.004 201.054 137.237 201.595 137.704C202.146 138.171 202.421 138.838 202.421 139.706C202.421 140.294 202.276 140.868 201.987 141.428C201.707 141.988 201.264 142.585 200.657 143.22L198.221 145.782H202.813V147H196.401ZM204.795 147V145.922L208.085 142.394C208.543 141.899 208.869 141.451 209.065 141.05C209.271 140.649 209.373 140.243 209.373 139.832C209.373 138.768 208.748 138.236 207.497 138.236C206.545 138.236 205.691 138.595 204.935 139.314L204.417 138.208C204.791 137.844 205.267 137.555 205.845 137.34C206.424 137.116 207.026 137.004 207.651 137.004C208.669 137.004 209.448 137.237 209.989 137.704C210.54 138.171 210.815 138.838 210.815 139.706C210.815 140.294 210.671 140.868 210.381 141.428C210.101 141.988 209.658 142.585 209.051 143.22L206.615 145.782H211.207V147H204.795Z" fill="white"/> -->
<ellipse cx="26.9673" cy="87.0004" rx="2.96729" ry="2.96374" fill="white"/>
<ellipse cx="36.8618" cy="86.9999" rx="2.96729" ry="2.96374" fill="white"/>
<ellipse cx="46.7544" cy="86.9999" rx="2.96729" ry="2.96374" fill="white"/>
<ellipse cx="56.645" cy="86.9999" rx="2.96729" ry="2.96374" fill="white"/>
<ellipse cx="78.4009" cy="86.9999" rx="2.96729" ry="2.96374" fill="white"/>
<ellipse cx="88.2915" cy="86.9999" rx="2.96729" ry="2.96374" fill="white"/>
<ellipse cx="98.1821" cy="86.9999" rx="2.96729" ry="2.96374" fill="white"/>
<ellipse cx="108.075" cy="86.9999" rx="2.96729" ry="2.96374" fill="white"/>
<ellipse cx="129.836" cy="86.9999" rx="2.96729" ry="2.96374" fill="white"/>
<ellipse cx="139.729" cy="86.9999" rx="2.96729" ry="2.96374" fill="white"/>
<ellipse cx="149.62" cy="86.9999" rx="2.96729" ry="2.96374" fill="white"/>
<ellipse cx="159.51" cy="86.9999" rx="2.96729" ry="2.96374" fill="white"/>
<!-- <path d="M182.994 92V89.998H178.556V88.92L183.246 82.13H184.436V88.78H185.878V89.998H184.436V92H182.994ZM182.994 88.78V84.398L179.998 88.78H182.994ZM190.647 92.126C190.012 92.126 189.396 92.028 188.799 91.832C188.211 91.6267 187.721 91.342 187.329 90.978L187.819 89.858C188.678 90.5487 189.611 90.894 190.619 90.894C191.263 90.894 191.767 90.7213 192.131 90.376C192.495 90.0213 192.677 89.5593 192.677 88.99C192.677 88.402 192.504 87.9213 192.159 87.548C191.814 87.1747 191.333 86.988 190.717 86.988C189.849 86.988 189.154 87.3473 188.631 88.066H187.623V82.13H193.503V83.348H189.037V86.47C189.56 86.0127 190.222 85.784 191.025 85.784C191.65 85.784 192.192 85.9147 192.649 86.176C193.106 86.4373 193.461 86.806 193.713 87.282C193.965 87.7487 194.091 88.2947 194.091 88.92C194.091 89.5547 193.951 90.1147 193.671 90.6C193.391 91.076 192.994 91.4493 192.481 91.72C191.968 91.9907 191.356 92.126 190.647 92.126ZM199.238 92.126C198.043 92.126 197.119 91.7013 196.466 90.852C195.822 90.0027 195.5 88.8127 195.5 87.282C195.5 85.5927 195.864 84.2907 196.592 83.376C197.32 82.4613 198.328 82.004 199.616 82.004C200.12 82.004 200.628 82.1067 201.142 82.312C201.655 82.508 202.084 82.788 202.43 83.152L201.926 84.244C201.59 83.908 201.216 83.656 200.806 83.488C200.404 83.32 199.998 83.236 199.588 83.236C198.72 83.236 198.052 83.5533 197.586 84.188C197.128 84.8133 196.9 85.7513 196.9 87.002V87.562C197.086 86.9927 197.408 86.5493 197.866 86.232C198.332 85.9053 198.869 85.742 199.476 85.742C200.054 85.742 200.563 85.8773 201.002 86.148C201.45 86.4187 201.8 86.792 202.052 87.268C202.304 87.7347 202.43 88.2713 202.43 88.878C202.43 89.5127 202.294 90.0773 202.024 90.572C201.753 91.0573 201.375 91.44 200.89 91.72C200.414 91.9907 199.863 92.126 199.238 92.126ZM199.154 90.95C199.723 90.95 200.185 90.7633 200.54 90.39C200.894 90.0167 201.072 89.5313 201.072 88.934C201.072 88.3367 200.894 87.8513 200.54 87.478C200.185 87.1047 199.723 86.918 199.154 86.918C198.584 86.918 198.122 87.1047 197.768 87.478C197.413 87.8513 197.236 88.3367 197.236 88.934C197.236 89.5313 197.413 90.0167 197.768 90.39C198.122 90.7633 198.584 90.95 199.154 90.95ZM207.282 92.126C206.153 92.126 205.271 91.8833 204.636 91.398C204.011 90.9127 203.698 90.236 203.698 89.368C203.698 88.7613 203.857 88.248 204.174 87.828C204.501 87.3987 204.925 87.1047 205.448 86.946C204.981 86.75 204.613 86.4513 204.342 86.05C204.071 85.6393 203.936 85.168 203.936 84.636C203.936 83.8147 204.239 83.1707 204.846 82.704C205.453 82.2373 206.265 82.004 207.282 82.004C208.309 82.004 209.125 82.2373 209.732 82.704C210.339 83.1707 210.642 83.8147 210.642 84.636C210.642 85.168 210.502 85.6393 210.222 86.05C209.951 86.4607 209.583 86.7593 209.116 86.946C209.648 87.1047 210.073 87.3987 210.39 87.828C210.707 88.248 210.866 88.7613 210.866 89.368C210.866 90.236 210.549 90.9127 209.914 91.398C209.289 91.8833 208.411 92.126 207.282 92.126ZM207.282 86.428C207.907 86.428 208.393 86.2833 208.738 85.994C209.093 85.6953 209.27 85.2893 209.27 84.776C209.27 84.272 209.093 83.8753 208.738 83.586C208.393 83.2967 207.907 83.152 207.282 83.152C206.657 83.152 206.171 83.2967 205.826 83.586C205.481 83.8753 205.308 84.272 205.308 84.776C205.308 85.2893 205.481 85.6953 205.826 85.994C206.171 86.2833 206.657 86.428 207.282 86.428ZM207.282 90.978C208.766 90.978 209.508 90.4087 209.508 89.27C209.508 88.1407 208.766 87.576 207.282 87.576C206.554 87.576 205.999 87.716 205.616 87.996C205.243 88.276 205.056 88.7007 205.056 89.27C205.056 90.4087 205.798 90.978 207.282 90.978Z" fill="white"/> -->
<defs>
<radialGradient id="paint0_radial_7651_6510" cx="0" cy="0" r="1" gradientUnits="userSpaceOnUse" gradientTransform="translate(33.9286 38.8396) rotate(70.6648) scale(196.858 217.037)">
<stop stop-color="#37ABC1"/>
<stop offset="1" stop-color="#237893"/>
</radialGradient>
<linearGradient id="paint1_linear_7651_6510" x1="10.2629" y1="0" x2="10.2629" y2="179" gradientUnits="userSpaceOnUse">
<stop stop-color="#E4141D"/>
<stop offset="0.322917" stop-color="#EE7714"/>
<stop offset="0.666667" stop-color="#D20881"/>

</linearGradient>
</defs>
</svg>
