<?xml version="1.0" encoding="UTF-8" standalone="no"?>
<svg
   width="18.576805"
   height="23.289801"
   viewBox="0 0 18.576805 23.289801"
   fill="none"
   version="1.1"
   id="svg33"
   xmlns="http://www.w3.org/2000/svg"
   xmlns:svg="http://www.w3.org/2000/svg">
  <g
     clip-path="url(#clip0_1_1185)"
     id="g26">
    <path
       d="m 70.2066,23.1873 h 2.0916 c 0.3413,0 0.611,-0.2707 0.611,-0.6008 V 11.9943 c 0,-1.9052 0.8641,-3.18255 2.587,-3.18255 h 3.4071 c 1.6788,0 2.9337,1.27195 2.9337,3.13925 v 10.6301 c 0,0.3355 0.2752,0.6008 0.611,0.6008 h 2.0916 c 0.3413,0 0.611,-0.2707 0.611,-0.6008 V 11.951 c 0,-3.98359 -2.4164,-6.23518 -6.2528,-6.23518 h -3.9246 c -3.0603,0 -5.3886,2.20287 -5.3886,6.27308 v 10.5922 c 0,0.3355 0.2752,0.6008 0.611,0.6008 z"
       fill="#3d2584"
       id="path2" />
    <path
       d="m 110.762,23.6143 c 2.13,0 4.161,-0.8389 5.383,-2.4897 0.16,-0.2165 0.512,-0.1029 0.512,0.1677 v 1.6563 c 0,0.1569 0.126,0.2814 0.286,0.2814 h 2.378 c 0.16,0 0.286,-0.1245 0.286,-0.2814 v -8.1999 c 0,-5.79679 -3.831,-9.08757 -8.845,-9.08757 -5.455,0 -8.669,4.02688 -8.669,9.00097 0,4.974 3.478,8.9576 8.669,8.9576 z m 0,-14.7977 c 3.523,0 5.455,2.8145 5.41,5.8401 0,3.0309 -1.981,5.9266 -5.366,5.9266 -3.567,0 -5.543,-2.9011 -5.543,-5.9266 0.044,-3.031 2.07,-5.8401 5.499,-5.8401 z"
       fill="#3d2584"
       id="path4" />
    <path
       d="m 26.7396,23.0953 c 0.2092,0 0.4624,0.0433 0.6715,0.0433 2.9558,0 5.8015,-1.6238 6.8473,-4.7738 0.1321,-0.4006 -0.1706,-0.8119 -0.5944,-0.8119 h -1.7394 c -0.3413,0 -0.655,0.1948 -0.7981,0.5033 -0.677,1.4722 -2.0146,2.1434 -3.7594,2.1434 -3.198,0 -4.8382,-2.6467 -4.8823,-5.5424 h 11.3828 c 0.4679,0 0.8367,-0.3843 0.8256,-0.8497 -0.1541,-5.07694 -3.4621,-8.09168 -7.4912,-8.09168 -5.1355,0 -7.6179,4.09724 -7.6564,8.40018 -0.0826,5.7101 3.5337,8.6491 7.194,8.9793 z M 23.2004,12.0322 c 0.4458,-2.24079 2.3503,-3.77252 4.3208,-3.77252 2.7962,0 3.8255,2.14872 4.1777,3.75622 0.0606,0.2707 -0.1486,0.5305 -0.4348,0.5305 h -7.6344 c -0.2752,0 -0.4899,-0.2436 -0.4348,-0.5088 z"
       fill="#3d2584"
       id="path6" />
    <path
       d="m 45.0466,16.07 c 1.5467,0.4167 2.1687,1.2719 2.1687,2.257 0.0385,1.2827 -1.2219,2.2895 -3.6328,2.2895 -2.1797,0 -3.8915,-0.7578 -4.4694,-2.6305 -0.1156,-0.368 -0.4514,-0.6224 -0.8422,-0.6224 h -1.354 c -0.5615,0 -0.9853,0.5087 -0.8642,1.05 0.7431,3.1879 4.0346,4.7684 7.3207,4.7684 4.3263,0 6.8582,-1.8457 6.8582,-4.6981 0.0386,-2.7928 -0.721,-4.0106 -7.4362,-5.2338 -3.0328,-0.5521 -3.8695,-1.7482 -3.8695,-2.5872 -0.0385,-1.36391 1.5907,-2.4897 3.919,-2.4897 1.6953,0 3.6824,0.6549 4.0567,2.6034 0.077,0.4005 0.4458,0.6874 0.8586,0.6874 h 1.2 c 0.5449,0 0.9577,-0.4763 0.8696,-1.0067 -0.4899,-2.99314 -3.4842,-4.69265 -6.9518,-4.69265 -4.9814,0 -7.0124,2.80907 -6.9409,5.13645 0.1376,4.1838 7.695,4.79 9.093,5.1689 z"
       fill="#3d2584"
       id="path8" />
    <path
       d="m 95.8068,16.0043 c 1.5522,0.4221 2.1742,1.2719 2.1742,2.2624 0.0385,1.2882 -1.2275,2.2949 -3.6438,2.2949 -2.1852,0 -3.9025,-0.7578 -4.4805,-2.6359 -0.1156,-0.368 -0.4513,-0.6224 -0.8476,-0.6224 H 87.655 c -0.5614,0 -0.9907,0.5142 -0.8641,1.05 0.743,3.1988 4.0401,4.7846 7.3426,4.7846 4.3374,0 6.8745,-1.8511 6.8745,-4.7088 0.039,-2.7983 -0.726,-4.0215 -7.4524,-5.2501 -3.0439,-0.5575 -3.8805,-1.7483 -3.8805,-2.598 -0.0385,-1.36937 1.5962,-2.49516 3.93,-2.49516 1.6953,0 3.6934,0.6549 4.0677,2.60876 0.077,0.4006 0.4458,0.6874 0.8641,0.6874 h 1.2055 c 0.5446,0 0.9576,-0.4817 0.8756,-1.0067 -0.49,-2.9985 -3.4957,-4.70342 -6.9688,-4.70342 -4.9924,0 -7.0345,2.81448 -6.9574,5.14722 0.1376,4.1947 7.7114,4.8009 9.1205,5.1798 z"
       fill="#3d2584"
       id="path10" />
    <path
       d="m 51.9875,28.9997 h 2.3558 c 0.2202,0 0.4018,-0.1786 0.4018,-0.3951 l -0.033,-7.6478 c 0,-0.3626 0.4569,-0.5358 0.699,-0.2652 1.2495,1.3964 3.22,2.0946 5.1905,2.0946 3.9576,-0.0812 7.6234,-2.939 7.6234,-8.2432 0,-4.84413 -3.4567,-8.8223 -8.2123,-8.8223 -5.0144,0 -8.427,3.52352 -8.427,8.6978 v 14.1861 c 0,0.2165 0.1816,0.3951 0.4018,0.3951 z M 59.9686,8.82746 c 3.3686,0 5.097,2.81444 5.097,5.63434 0.044,2.7333 -1.5577,5.4666 -4.8438,5.4666 -3.286,0 -5.3501,-2.3598 -5.3941,-5.5099 -0.044,-2.7766 1.6843,-5.59104 5.1409,-5.59104 z"
       fill="#3d2584"
       id="path12" />
    <path
       d="M 7.5298,0.0703621 1.65678,0 H 1.49165 1.3045 0.407314 C 0.18164,0 0,0.184024 0,0.405935 V 1.48302 3.05804 h 3.53372 c 0,0 0.01101,0 0.01651,0 h 3.97406 c 4.43091,0 8.05821,4.48153 8.05821,8.62746 0,4.606 -3.2035,8.5409 -8.05821,8.5409 H 3.96856 0.022017 l 0.0220169,2.6629 c 0,0.2219 0.1871441,0.4005 0.4128181,0.4005 L 7.52429,23.252 C 13.7221,23.252 18.5768,18.4836 18.5768,11.6801 18.5823,5.46118 13.5184,0.0703621 7.5298,0.0703621 Z"
       fill="#3d2584"
       id="path14" />
    <path
       d="M 9.97915,11.3937 8.71868,9.94858 5.15193,5.88382 3.25848,3.72424 C 3.19243,3.65388 3.1594,3.55646 3.1594,3.46445 3.1594,3.25336 3.33003,3.08557 3.53919,3.06934 H 0.0164795 v 2.13251 c 0,0.09742 0.0330254,0.18943 0.0990765,0.2598 L 0.412785,5.80263 5.31706,11.3937 c 0.02752,0.0271 0.04404,0.0595 0.06055,0.092 0.01101,0.0271 0.01651,0.0541 0.02752,0.0812 0,0.0108 0.0055,0.0162 0.0055,0.0271 0,0.0216 0,0.0379 0,0.0595 0,0.0217 0,0.0379 0,0.0595 0,0.0109 0,0.0163 -0.0055,0.0271 -0.00551,0.0271 -0.01101,0.0541 -0.02752,0.0812 -0.01651,0.0325 -0.03303,0.0649 -0.06055,0.092 L 0.412785,17.499 0.115556,17.84 c -0.0660511,0.0703 -0.0990765,0.1677 -0.0990765,0.2598 v 2.1325 H 3.53919 C 3.32453,20.216 3.1594,20.0482 3.1594,19.8372 c 0,-0.0975 0.03303,-0.1895 0.09908,-0.2598 L 5.15193,17.4178 8.20128,13.943 v 0.0108 l 1.77237,-2.0351 c 0,0 0,-0.0108 0.0055,-0.0108 0.12105,-0.1516 0.12105,-0.3626 -0.0055,-0.5142 z"
       fill="#aee71c"
       id="path16" />
    <path
       d="m 125.524,23.2353 h 11.851 c 0.176,0 0.325,-0.1407 0.325,-0.3193 v -2.0242 c 0,-0.1732 -0.144,-0.3194 -0.325,-0.3194 h -7.442 l 2.73,-2.4681 c 1.134,-1.0338 2.042,-1.9593 2.703,-2.7441 0.671,-0.801 1.156,-1.5696 1.436,-2.2841 0.281,-0.7144 0.43,-1.4667 0.43,-2.2245 0,-1.05 -0.237,-1.98094 -0.705,-2.77657 -0.473,-0.79564 -1.161,-1.42889 -2.058,-1.87272 -0.887,-0.43841 -1.954,-0.66032 -3.176,-0.66032 -1.09,0 -2.103,0.22733 -3.006,0.67115 -0.913,0.45465 -1.645,1.13662 -2.179,2.0405 -0.534,0.89306 -0.82,2.02426 -0.854,3.36116 0,0.0866 0.034,0.1678 0.094,0.2273 0.061,0.0595 0.143,0.0974 0.231,0.0974 h 2.356 c 0.176,0 0.319,-0.1353 0.325,-0.3085 0.016,-0.6928 0.143,-1.3044 0.385,-1.81316 0.237,-0.50336 0.567,-0.88223 1.007,-1.15827 0.435,-0.27062 0.98,-0.41134 1.619,-0.41134 1.012,0 1.744,0.23814 2.174,0.71444 0.446,0.49254 0.666,1.10953 0.666,1.88893 0,0.5304 -0.116,1.05 -0.341,1.548 -0.232,0.5088 -0.617,1.0662 -1.151,1.6724 -0.545,0.6171 -1.304,1.364 -2.257,2.2192 l -5.052,4.633 c -0.067,0.0596 -0.105,0.1462 -0.105,0.2328 v 1.759 c 0,0.1732 0.143,0.3193 0.325,0.3193 z"
       fill="#aee71c"
       id="path18" />
    <path
       d="m 136.654,17.2981 v 1.759 c 0,0.1732 0.143,0.3193 0.325,0.3193 h 8.68 v 3.5398 c 0,0.1732 0.143,0.3193 0.324,0.3193 h 2.428 c 0.176,0 0.325,-0.1407 0.325,-0.3193 v -3.5398 h 2.031 c 0.176,0 0.324,-0.1407 0.324,-0.3193 v -2.0513 c 0,-0.1732 -0.143,-0.3194 -0.324,-0.3194 h -2.031 V 6.0293 c 0,-0.1732 -0.144,-0.31934 -0.325,-0.31934 h -2.967 c -0.105,0 -0.198,0.04871 -0.259,0.1299 L 136.72,17.1032 c -0.039,0.0541 -0.061,0.1191 -0.061,0.1894 z m 9.054,-7.80482 v 7.19312 h -5.3 z"
       fill="#aee71c"
       id="path20" />
    <path
       d="m 173.675,5.62305 h -11.74 c -0.176,0 -0.325,0.14072 -0.325,0.31933 v 2.03509 c 0,0.1732 0.143,0.31934 0.325,0.31934 h 8.851 l -6.71,14.45669 c -0.044,0.0974 -0.039,0.2111 0.022,0.3031 0.06,0.092 0.16,0.1461 0.27,0.1461 h 2.46 c 0.127,0 0.242,-0.0757 0.297,-0.1894 l 6.842,-15.14949 c 0.017,-0.03789 0.028,-0.0866 0.028,-0.1299 V 5.94238 c 0,-0.1732 -0.144,-0.31933 -0.325,-0.31933 z"
       fill="#aee71c"
       id="path22" />
    <path
       d="m 152.132,27.3922 0.682,0.1624 c 0.088,0.0216 0.182,0.0324 0.27,0.0324 0.209,0 0.418,-0.0541 0.6,-0.1678 0.264,-0.1569 0.446,-0.4059 0.517,-0.6982 l 5.851,-23.91224 c 0.072,-0.29227 0.022,-0.59537 -0.137,-0.85517 -0.16,-0.2598 -0.413,-0.43841 -0.71,-0.50877 l -0.683,-0.16238 c -0.297,-0.07036 -0.605,-0.02165 -0.87,0.13532 -0.264,0.15696 -0.445,0.40593 -0.517,0.6982 l -5.851,23.91224 c -0.071,0.2923 -0.022,0.5954 0.138,0.8552 0.159,0.2598 0.413,0.4384 0.71,0.5088 z"
       fill="#aee71c"
       id="path24" />
  </g>
  <defs
     id="defs31">
    <clipPath
       id="clip0_1_1185">
      <rect
         width="174"
         height="29"
         fill="#ffffff"
         id="rect28"
         x="0"
         y="0" />
    </clipPath>
  </defs>
</svg>
