<svg xmlns="http://www.w3.org/2000/svg" xmlns:xlink="http://www.w3.org/1999/xlink" width="40" zoomAndPan="magnify" viewBox="0 0 30 30.000001" height="40" preserveAspectRatio="xMidYMid meet" version="1.0"><defs><g/><clipPath id="8fce9988ec"><path d="M 12 13 L 18 13 L 18 15.367188 L 12 15.367188 Z M 12 13 " clip-rule="nonzero"/></clipPath><clipPath id="46fe90e757"><path d="M 13 9.558594 L 17 9.558594 L 17 15 L 13 15 Z M 13 9.558594 " clip-rule="nonzero"/></clipPath><clipPath id="ddecfbe12e"><path d="M 11.691406 13 L 18.222656 13 L 18.222656 14 L 11.691406 14 Z M 11.691406 13 " clip-rule="nonzero"/></clipPath></defs><g fill="#293c47" fill-opacity="1"><g transform="translate(7.159602, 17.877244)"><g><path d="M 1.277344 -0.894531 C 1.476562 -0.933594 1.636719 -1.050781 1.636719 -1.304688 C 1.636719 -1.539062 1.488281 -1.730469 1.117188 -1.730469 L 0.152344 -1.730469 L 0.152344 0 L 1.097656 0 C 1.46875 0 1.660156 -0.179688 1.660156 -0.472656 C 1.660156 -0.746094 1.496094 -0.859375 1.277344 -0.894531 Z M 1 -1.433594 C 1.164062 -1.433594 1.222656 -1.359375 1.222656 -1.226562 C 1.222656 -1.101562 1.160156 -1.019531 0.988281 -1.019531 L 0.546875 -1.019531 L 0.546875 -1.433594 Z M 1.011719 -0.300781 L 0.546875 -0.300781 L 0.546875 -0.753906 L 0.988281 -0.753906 C 1.175781 -0.753906 1.246094 -0.664062 1.246094 -0.527344 C 1.246094 -0.398438 1.1875 -0.300781 1.011719 -0.300781 Z M 1.011719 -0.300781 "/></g></g></g><g fill="#293c47" fill-opacity="1"><g transform="translate(8.921783, 17.877244)"><g><path d="M 0.546875 0.0351562 C 0.8125 0.0351562 0.96875 -0.0976562 1.027344 -0.277344 C 1.027344 -0.171875 1.035156 -0.0859375 1.050781 0 L 1.386719 0 C 1.371094 -0.113281 1.363281 -0.214844 1.363281 -0.339844 L 1.363281 -0.902344 C 1.363281 -1.175781 1.171875 -1.347656 0.777344 -1.347656 C 0.378906 -1.347656 0.152344 -1.15625 0.140625 -0.878906 L 0.519531 -0.878906 C 0.523438 -1.011719 0.605469 -1.082031 0.785156 -1.082031 C 0.957031 -1.082031 1.011719 -1.019531 1.011719 -0.929688 C 1.011719 -0.855469 0.96875 -0.820312 0.847656 -0.800781 L 0.542969 -0.746094 C 0.207031 -0.691406 0.113281 -0.554688 0.113281 -0.347656 C 0.113281 -0.113281 0.285156 0.0351562 0.546875 0.0351562 Z M 0.675781 -0.230469 C 0.574219 -0.230469 0.496094 -0.28125 0.496094 -0.386719 C 0.496094 -0.484375 0.550781 -0.535156 0.6875 -0.566406 L 0.796875 -0.59375 C 0.878906 -0.613281 0.941406 -0.628906 1.011719 -0.675781 L 1.011719 -0.621094 C 1.011719 -0.378906 0.878906 -0.230469 0.675781 -0.230469 Z M 0.675781 -0.230469 "/></g></g></g><g fill="#293c47" fill-opacity="1"><g transform="translate(10.428878, 17.877244)"><g><path d="M 1.003906 -1.34375 C 0.769531 -1.34375 0.621094 -1.222656 0.535156 -1.046875 L 0.535156 -1.300781 L 0.152344 -1.300781 L 0.152344 0 L 0.535156 0 L 0.535156 -0.589844 C 0.535156 -0.902344 0.652344 -1.03125 0.855469 -1.03125 C 1.015625 -1.03125 1.105469 -0.949219 1.105469 -0.738281 L 1.105469 0 L 1.488281 0 L 1.488281 -0.800781 C 1.488281 -1.140625 1.347656 -1.34375 1.003906 -1.34375 Z M 1.003906 -1.34375 "/></g></g></g><g fill="#293c47" fill-opacity="1"><g transform="translate(12.050501, 17.877244)"><g><path d="M 1.121094 0 L 1.578125 0 L 0.988281 -0.746094 L 1.546875 -1.292969 L 1.546875 -1.300781 L 1.085938 -1.300781 L 0.671875 -0.867188 C 0.628906 -0.816406 0.582031 -0.757812 0.535156 -0.695312 L 0.535156 -1.824219 L 0.152344 -1.824219 L 0.152344 0 L 0.535156 0 L 0.535156 -0.3125 L 0.742188 -0.511719 Z M 1.121094 0 "/></g></g></g><g fill="#293c47" fill-opacity="1"><g transform="translate(13.646095, 17.877244)"><g/></g></g><g fill="#293c47" fill-opacity="1"><g transform="translate(14.304635, 17.877244)"><g><path d="M 1.449219 -1.730469 L 1.449219 -0.28125 C 1.417969 -0.371094 1.386719 -0.457031 1.355469 -0.53125 L 0.808594 -1.730469 L 0.152344 -1.730469 L 0.152344 0 L 0.53125 0 L 0.53125 -1.449219 C 0.558594 -1.359375 0.589844 -1.269531 0.628906 -1.183594 L 1.171875 0 L 1.828125 0 L 1.828125 -1.730469 Z M 1.449219 -1.730469 "/></g></g></g><g fill="#293c47" fill-opacity="1"><g transform="translate(16.282859, 17.877244)"><g><path d="M 0.546875 0.0351562 C 0.8125 0.0351562 0.96875 -0.0976562 1.027344 -0.277344 C 1.027344 -0.171875 1.035156 -0.0859375 1.050781 0 L 1.386719 0 C 1.371094 -0.113281 1.363281 -0.214844 1.363281 -0.339844 L 1.363281 -0.902344 C 1.363281 -1.175781 1.171875 -1.347656 0.777344 -1.347656 C 0.378906 -1.347656 0.152344 -1.15625 0.140625 -0.878906 L 0.519531 -0.878906 C 0.523438 -1.011719 0.605469 -1.082031 0.785156 -1.082031 C 0.957031 -1.082031 1.011719 -1.019531 1.011719 -0.929688 C 1.011719 -0.855469 0.96875 -0.820312 0.847656 -0.800781 L 0.542969 -0.746094 C 0.207031 -0.691406 0.113281 -0.554688 0.113281 -0.347656 C 0.113281 -0.113281 0.285156 0.0351562 0.546875 0.0351562 Z M 0.675781 -0.230469 C 0.574219 -0.230469 0.496094 -0.28125 0.496094 -0.386719 C 0.496094 -0.484375 0.550781 -0.535156 0.6875 -0.566406 L 0.796875 -0.59375 C 0.878906 -0.613281 0.941406 -0.628906 1.011719 -0.675781 L 1.011719 -0.621094 C 1.011719 -0.378906 0.878906 -0.230469 0.675781 -0.230469 Z M 0.675781 -0.230469 "/></g></g></g><g fill="#293c47" fill-opacity="1"><g transform="translate(17.789954, 17.877244)"><g><path d="M 1.878906 -1.34375 C 1.632812 -1.34375 1.488281 -1.222656 1.410156 -1.042969 C 1.355469 -1.234375 1.214844 -1.34375 0.980469 -1.34375 C 0.753906 -1.34375 0.613281 -1.230469 0.535156 -1.066406 L 0.535156 -1.300781 L 0.152344 -1.300781 L 0.152344 0 L 0.535156 0 L 0.535156 -0.589844 C 0.535156 -0.902344 0.636719 -1.03125 0.832031 -1.03125 C 0.988281 -1.03125 1.066406 -0.941406 1.066406 -0.746094 L 1.066406 0 L 1.441406 0 L 1.441406 -0.589844 C 1.441406 -0.902344 1.542969 -1.03125 1.738281 -1.03125 C 1.894531 -1.03125 1.972656 -0.941406 1.972656 -0.746094 L 1.972656 0 L 2.355469 0 L 2.355469 -0.800781 C 2.355469 -1.140625 2.207031 -1.34375 1.878906 -1.34375 Z M 1.878906 -1.34375 "/></g></g></g><g fill="#293c47" fill-opacity="1"><g transform="translate(20.278351, 17.877244)"><g><path d="M 0.804688 -0.222656 C 0.621094 -0.222656 0.496094 -0.304688 0.472656 -0.550781 L 1.464844 -0.550781 C 1.472656 -0.582031 1.472656 -0.617188 1.472656 -0.65625 C 1.472656 -1.023438 1.289062 -1.34375 0.796875 -1.34375 C 0.316406 -1.34375 0.0976562 -1.03125 0.0976562 -0.652344 C 0.0976562 -0.285156 0.289062 0.0429688 0.796875 0.0429688 C 1.265625 0.0429688 1.433594 -0.183594 1.46875 -0.394531 L 1.097656 -0.394531 C 1.0625 -0.296875 0.972656 -0.222656 0.804688 -0.222656 Z M 0.800781 -1.082031 C 0.996094 -1.082031 1.089844 -0.984375 1.105469 -0.785156 L 0.476562 -0.785156 C 0.507812 -1.007812 0.617188 -1.082031 0.800781 -1.082031 Z M 0.800781 -1.082031 "/></g></g></g><path fill="#c4a464" d="M 16.722656 13.320312 C 16.722656 12.6875 16.394531 12.132812 15.902344 11.8125 L 15.902344 11.246094 C 16.679688 11.613281 17.222656 12.40625 17.222656 13.324219 C 17.222656 13.363281 17.21875 13.402344 17.21875 13.441406 C 17.058594 13.394531 16.894531 13.355469 16.722656 13.320312 " fill-opacity="1" fill-rule="nonzero"/><path fill="#c4a464" d="M 13.132812 13.320312 C 12.964844 13.355469 12.796875 13.394531 12.640625 13.441406 C 12.636719 13.402344 12.636719 13.363281 12.636719 13.324219 C 12.636719 12.375 13.210938 11.5625 14.027344 11.214844 L 14.027344 11.769531 C 13.492188 12.078125 13.132812 12.65625 13.132812 13.320312 " fill-opacity="1" fill-rule="nonzero"/><g clip-path="url(#8fce9988ec)"><path fill="#c4a464" d="M 13.226562 13.890625 C 13.460938 14.601562 14.136719 15.117188 14.929688 15.117188 C 15.722656 15.117188 16.394531 14.601562 16.632812 13.890625 C 16.800781 13.910156 16.96875 13.929688 17.132812 13.957031 C 16.859375 14.914062 15.976562 15.613281 14.929688 15.613281 C 13.882812 15.613281 13 14.914062 12.726562 13.957031 C 12.886719 13.929688 13.054688 13.910156 13.226562 13.890625 " fill-opacity="1" fill-rule="nonzero"/></g><g clip-path="url(#46fe90e757)"><path fill="#293c47" d="M 16.011719 13.835938 C 15.835938 13.820312 15.660156 13.8125 15.484375 13.808594 L 15.484375 14.898438 C 15.679688 14.832031 15.855469 14.726562 16.011719 14.597656 Z M 14.375 13.808594 C 14.195312 13.8125 14.019531 13.820312 13.847656 13.835938 L 13.847656 14.597656 C 14 14.726562 14.179688 14.832031 14.375 14.898438 Z M 14.929688 13.796875 C 14.839844 13.796875 14.753906 13.796875 14.664062 13.800781 L 14.664062 14.972656 C 14.75 14.988281 14.839844 14.996094 14.929688 14.996094 C 15.019531 14.996094 15.105469 14.988281 15.191406 14.972656 L 15.191406 13.800781 C 15.105469 13.796875 15.015625 13.796875 14.929688 13.796875 Z M 13.847656 10.710938 L 13.847656 13.203125 C 14.019531 13.183594 14.195312 13.167969 14.375 13.15625 L 14.375 10.710938 Z M 16.011719 9.558594 L 15.484375 9.558594 L 15.484375 13.15625 C 15.664062 13.167969 15.839844 13.183594 16.011719 13.203125 Z M 15.191406 10.175781 L 14.664062 10.175781 L 14.664062 13.144531 C 14.753906 13.140625 14.839844 13.140625 14.929688 13.140625 C 15.015625 13.140625 15.105469 13.140625 15.191406 13.144531 L 15.191406 10.175781 " fill-opacity="1" fill-rule="nonzero"/></g><g clip-path="url(#ddecfbe12e)"><path fill="#c4a464" d="M 14.929688 13.632812 C 13.722656 13.632812 12.605469 13.765625 11.695312 13.992188 C 12.464844 13.570312 13.628906 13.304688 14.929688 13.304688 C 16.230469 13.304688 17.390625 13.570312 18.164062 13.992188 C 17.253906 13.765625 16.136719 13.632812 14.929688 13.632812 " fill-opacity="1" fill-rule="nonzero"/></g></svg>