<svg width="174" height="29" viewBox="0 0 174 29" fill="none" xmlns="http://www.w3.org/2000/svg">
<g clip-path="url(#clip0_1_1185)">
<path d="M70.2066 23.1873H72.2982C72.6395 23.1873 72.9092 22.9166 72.9092 22.5865V11.9943C72.9092 10.0891 73.7733 8.81175 75.4962 8.81175H78.9033C80.5821 8.81175 81.837 10.0837 81.837 11.951V22.5811C81.837 22.9166 82.1122 23.1819 82.448 23.1819H84.5396C84.8809 23.1819 85.1506 22.9112 85.1506 22.5811V11.951C85.1506 7.96741 82.7342 5.71582 78.8978 5.71582H74.9732C71.9129 5.71582 69.5846 7.91869 69.5846 11.9889V22.5811C69.5846 22.9166 69.8598 23.1819 70.1956 23.1819L70.2066 23.1873Z" fill="#3D2584"/>
<path d="M110.762 23.6143C112.892 23.6143 114.923 22.7754 116.145 21.1246C116.305 20.9081 116.657 21.0217 116.657 21.2923V22.9486C116.657 23.1055 116.783 23.23 116.943 23.23H119.321C119.481 23.23 119.607 23.1055 119.607 22.9486V14.7487C119.607 8.95191 115.776 5.66113 110.762 5.66113C105.307 5.66113 102.093 9.68801 102.093 14.6621C102.093 19.6361 105.571 23.6197 110.762 23.6197V23.6143ZM110.762 8.8166C114.285 8.8166 116.217 11.6311 116.172 14.6567C116.172 17.6876 114.191 20.5833 110.806 20.5833C107.239 20.5833 105.263 17.6822 105.263 14.6567C105.307 11.6257 107.333 8.8166 110.762 8.8166Z" fill="#3D2584"/>
<path d="M26.7396 23.0953C26.9488 23.0953 27.202 23.1386 27.4111 23.1386C30.3669 23.1386 33.2126 21.5148 34.2584 18.3648C34.3905 17.9642 34.0878 17.5529 33.664 17.5529H31.9246C31.5833 17.5529 31.2696 17.7477 31.1265 18.0562C30.4495 19.5284 29.1119 20.1996 27.3671 20.1996C24.1691 20.1996 22.5289 17.5529 22.4848 14.6572H33.8676C34.3355 14.6572 34.7043 14.2729 34.6932 13.8075C34.5391 8.73056 31.2311 5.71582 27.202 5.71582C22.0665 5.71582 19.5841 9.81306 19.5456 14.116C19.463 19.8261 23.0793 22.7651 26.7396 23.0953ZM23.2004 12.0322C23.6462 9.79141 25.5507 8.25968 27.5212 8.25968C30.3174 8.25968 31.3467 10.4084 31.6989 12.0159C31.7595 12.2866 31.5503 12.5464 31.2641 12.5464H23.6297C23.3545 12.5464 23.1398 12.3028 23.1949 12.0376L23.2004 12.0322Z" fill="#3D2584"/>
<path d="M45.0466 16.07C46.5933 16.4867 47.2153 17.3419 47.2153 18.327C47.2538 19.6097 45.9934 20.6165 43.5825 20.6165C41.4028 20.6165 39.691 19.8587 39.1131 17.986C38.9975 17.618 38.6617 17.3636 38.2709 17.3636H36.9169C36.3554 17.3636 35.9316 17.8723 36.0527 18.4136C36.7958 21.6015 40.0873 23.182 43.3734 23.182C47.6997 23.182 50.2316 21.3363 50.2316 18.4839C50.2702 15.6911 49.5106 14.4733 42.7954 13.2501C39.7626 12.698 38.9259 11.5019 38.9259 10.6629C38.8874 9.29899 40.5166 8.1732 42.8449 8.1732C44.5402 8.1732 46.5273 8.8281 46.9016 10.7766C46.9786 11.1771 47.3474 11.464 47.7602 11.464H48.9602C49.5051 11.464 49.9179 10.9877 49.8298 10.4573C49.3399 7.46416 46.3456 5.76465 42.878 5.76465C37.8966 5.76465 35.8656 8.57372 35.9371 10.9011C36.0747 15.0849 43.6321 15.6911 45.0301 16.07H45.0466Z" fill="#3D2584"/>
<path d="M95.8068 16.0043C97.359 16.4264 97.981 17.2762 97.981 18.2667C98.0195 19.5549 96.7535 20.5616 94.3372 20.5616C92.152 20.5616 90.4347 19.8038 89.8567 17.9257C89.7411 17.5577 89.4054 17.3033 89.0091 17.3033H87.655C87.0936 17.3033 86.6643 17.8175 86.7909 18.3533C87.5339 21.5521 90.831 23.1379 94.1335 23.1379C98.4709 23.1379 101.008 21.2868 101.008 18.4291C101.047 15.6308 100.282 14.4076 93.5556 13.179C90.5117 12.6215 89.6751 11.4307 89.6751 10.581C89.6366 9.21163 91.2713 8.08584 93.6051 8.08584C95.3004 8.08584 97.2985 8.74074 97.6728 10.6946C97.7498 11.0952 98.1186 11.382 98.5369 11.382H99.7424C100.287 11.382 100.7 10.9003 100.618 10.3753C100.128 7.3768 97.1223 5.67188 93.6492 5.67188C88.6568 5.67188 86.6147 8.48636 86.6918 10.8191C86.8294 15.0138 94.4032 15.62 95.8123 15.9989L95.8068 16.0043Z" fill="#3D2584"/>
<path d="M51.9875 28.9997H54.3433C54.5635 28.9997 54.7451 28.8211 54.7451 28.6046L54.7121 20.9568C54.7121 20.5942 55.169 20.421 55.4111 20.6916C56.6606 22.088 58.6311 22.7862 60.6016 22.7862C64.5592 22.705 68.225 19.8472 68.225 14.543C68.225 9.69887 64.7683 5.7207 60.0127 5.7207C54.9983 5.7207 51.5857 9.24422 51.5857 14.4185V28.6046C51.5857 28.8211 51.7673 28.9997 51.9875 28.9997ZM59.9686 8.82746C63.3372 8.82746 65.0656 11.6419 65.0656 14.4618C65.1096 17.1951 63.5079 19.9284 60.2218 19.9284C56.9358 19.9284 54.8717 17.5686 54.8277 14.4185C54.7837 11.6419 56.512 8.82746 59.9686 8.82746Z" fill="#3D2584"/>
<path d="M7.5298 0.0703621L1.65678 0H1.49165H1.3045H0.407314C0.18164 0 0 0.184024 0 0.405935V1.48302V3.05804H3.53372C3.53372 3.05804 3.54473 3.05804 3.55023 3.05804H7.52429C11.9552 3.05804 15.5825 7.53957 15.5825 11.6855C15.5825 16.2915 12.379 20.2264 7.52429 20.2264H3.96856H0.022017L0.0440339 22.8893C0.0440339 23.1112 0.231178 23.2898 0.456852 23.2898L7.52429 23.252C13.7221 23.252 18.5768 18.4836 18.5768 11.6801C18.5823 5.46118 13.5184 0.0703621 7.5298 0.0703621Z" fill="#3D2584"/>
<path d="M9.97915 11.3937L8.71868 9.94858L5.15193 5.88382L3.25848 3.72424C3.19243 3.65388 3.1594 3.55646 3.1594 3.46445C3.1594 3.25336 3.33003 3.08557 3.53919 3.06934H0.0164795V5.20185C0.0164795 5.29927 0.0495049 5.39128 0.115556 5.46165L0.412785 5.80263L5.31706 11.3937C5.34458 11.4208 5.3611 11.4532 5.37761 11.4857C5.38862 11.5128 5.39412 11.5398 5.40513 11.5669C5.40513 11.5777 5.41063 11.5831 5.41063 11.594C5.41063 11.6156 5.41063 11.6319 5.41063 11.6535C5.41063 11.6752 5.41063 11.6914 5.41063 11.713C5.41063 11.7239 5.41063 11.7293 5.40513 11.7401C5.39962 11.7672 5.39412 11.7942 5.37761 11.8213C5.3611 11.8538 5.34458 11.8862 5.31706 11.9133L0.412785 17.499L0.115556 17.84C0.0495049 17.9103 0.0164795 18.0077 0.0164795 18.0998V20.2323H3.53919C3.32453 20.216 3.1594 20.0482 3.1594 19.8372C3.1594 19.7397 3.19243 19.6477 3.25848 19.5774L5.15193 17.4178L8.20128 13.943V13.9538L9.97365 11.9187C9.97365 11.9187 9.97365 11.9079 9.97915 11.9079C10.1002 11.7563 10.1002 11.5453 9.97365 11.3937H9.97915Z" fill="#AEE71C"/>
<path d="M125.524 23.2353H137.375C137.551 23.2353 137.7 23.0946 137.7 22.916V20.8918C137.7 20.7186 137.556 20.5724 137.375 20.5724H129.933L132.663 18.1043C133.797 17.0705 134.705 16.145 135.366 15.3602C136.037 14.5592 136.522 13.7906 136.802 13.0761C137.083 12.3617 137.232 11.6094 137.232 10.8516C137.232 9.8016 136.995 8.87066 136.527 8.07503C136.054 7.27939 135.366 6.64614 134.469 6.20231C133.582 5.7639 132.515 5.54199 131.293 5.54199C130.203 5.54199 129.19 5.76932 128.287 6.21314C127.374 6.66779 126.642 7.34976 126.108 8.25364C125.574 9.1467 125.288 10.2779 125.254 11.6148C125.254 11.7014 125.288 11.7826 125.348 11.8421C125.409 11.9016 125.491 11.9395 125.579 11.9395H127.935C128.111 11.9395 128.254 11.8042 128.26 11.631C128.276 10.9382 128.403 10.3266 128.645 9.81784C128.882 9.31448 129.212 8.93561 129.652 8.65957C130.087 8.38895 130.632 8.24823 131.271 8.24823C132.283 8.24823 133.015 8.48637 133.445 8.96267C133.891 9.45521 134.111 10.0722 134.111 10.8516C134.111 11.382 133.995 11.9016 133.77 12.3996C133.538 12.9084 133.153 13.4658 132.619 14.072C132.074 14.6891 131.315 15.436 130.362 16.2912L125.31 20.9242C125.243 20.9838 125.205 21.0704 125.205 21.157V22.916C125.205 23.0892 125.348 23.2353 125.53 23.2353H125.524Z" fill="#AEE71C"/>
<path d="M136.654 17.2981V19.0571C136.654 19.2303 136.797 19.3764 136.979 19.3764H145.659V22.9162C145.659 23.0894 145.802 23.2355 145.983 23.2355H148.411C148.587 23.2355 148.736 23.0948 148.736 22.9162V19.3764H150.767C150.943 19.3764 151.091 19.2357 151.091 19.0571V17.0058C151.091 16.8326 150.948 16.6864 150.767 16.6864H148.736V6.0293C148.736 5.8561 148.592 5.70996 148.411 5.70996H145.444C145.339 5.70996 145.246 5.75867 145.185 5.83986L136.72 17.1032C136.681 17.1573 136.659 17.2223 136.659 17.2926L136.654 17.2981ZM145.708 9.49328V16.6864H140.408L145.708 9.49328Z" fill="#AEE71C"/>
<path d="M173.675 5.62305H161.935C161.759 5.62305 161.61 5.76377 161.61 5.94238V7.97747C161.61 8.15067 161.753 8.29681 161.935 8.29681H170.786L164.076 22.7535C164.032 22.8509 164.037 22.9646 164.098 23.0566C164.158 23.1486 164.258 23.2027 164.368 23.2027H166.828C166.955 23.2027 167.07 23.127 167.125 23.0133L173.967 7.86381C173.984 7.82592 173.995 7.77721 173.995 7.73391V5.94238C173.995 5.76918 173.851 5.62305 173.67 5.62305H173.675Z" fill="#AEE71C"/>
<path d="M152.132 27.3922L152.814 27.5546C152.902 27.5762 152.996 27.587 153.084 27.587C153.293 27.587 153.502 27.5329 153.684 27.4192C153.948 27.2623 154.13 27.0133 154.201 26.721L160.052 2.80876C160.124 2.51649 160.074 2.21339 159.915 1.95359C159.755 1.69379 159.502 1.51518 159.205 1.44482L158.522 1.28244C158.225 1.21208 157.917 1.26079 157.652 1.41776C157.388 1.57472 157.207 1.82369 157.135 2.11596L151.284 26.0282C151.213 26.3205 151.262 26.6236 151.422 26.8834C151.581 27.1432 151.835 27.3218 152.132 27.3922Z" fill="#AEE71C"/>
</g>
<defs>
<clipPath id="clip0_1_1185">
<rect width="174" height="29" fill="white"/>
</clipPath>
</defs>
</svg>
