<svg xmlns="http://www.w3.org/2000/svg" xmlns:xlink="http://www.w3.org/1999/xlink" width="40" zoomAndPan="magnify" viewBox="0 0 30 30.000001" height="40" preserveAspectRatio="xMidYMid meet" version="1.0"><defs><clipPath id="56d6fada0e"><path d="M 4.039062 10 L 26.539062 10 L 26.539062 26.332031 L 4.039062 26.332031 Z M 4.039062 10 " clip-rule="nonzero"/></clipPath><clipPath id="e3b9ebff9c"><path d="M 6 2.378906 L 26 2.378906 L 26 11 L 6 11 Z M 6 2.378906 " clip-rule="nonzero"/></clipPath></defs><path fill="#000000" d="M 22.789062 8.507812 L 21.664062 9.308594 C 21.496094 9.417969 21.457031 9.660156 21.570312 9.828125 C 21.644531 9.9375 21.757812 9.976562 21.871094 9.976562 C 21.945312 9.976562 22.019531 9.957031 22.074219 9.902344 L 23.199219 9.101562 C 23.371094 8.992188 23.40625 8.75 23.292969 8.582031 C 23.183594 8.433594 22.957031 8.398438 22.789062 8.507812 Z M 22.789062 8.507812 " fill-opacity="1" fill-rule="nonzero"/><g clip-path="url(#56d6fada0e)"><path fill="#000000" d="M 25.976562 15.933594 L 25.976562 12.574219 C 25.976562 11.550781 25.152344 10.71875 24.121094 10.71875 L 5.894531 10.71875 C 4.863281 10.71875 4.039062 11.550781 4.039062 12.574219 L 4.039062 24.453125 C 4.039062 25.472656 4.863281 26.308594 5.894531 26.308594 L 24.121094 26.308594 C 25.152344 26.308594 25.976562 25.472656 25.976562 24.453125 L 25.976562 21.09375 C 26.292969 21.019531 26.539062 20.722656 26.539062 20.367188 L 26.539062 16.65625 C 26.539062 16.304688 26.292969 16.027344 25.976562 15.933594 Z M 25.789062 16.65625 L 25.789062 20.367188 L 19.84375 20.367188 C 19.226562 20.367188 18.71875 19.867188 18.71875 19.253906 L 18.71875 17.769531 C 18.71875 17.15625 19.226562 16.65625 19.84375 16.65625 Z M 24.121094 25.566406 L 5.894531 25.566406 C 5.277344 25.566406 4.769531 25.066406 4.769531 24.453125 L 4.769531 12.574219 C 4.769531 11.960938 5.277344 11.460938 5.894531 11.460938 L 24.121094 11.460938 C 24.738281 11.460938 25.246094 11.960938 25.246094 12.574219 L 25.246094 15.914062 L 19.84375 15.914062 C 18.8125 15.914062 17.988281 16.75 17.988281 17.769531 L 17.988281 19.253906 C 17.988281 20.277344 18.8125 21.109375 19.84375 21.109375 L 25.246094 21.109375 L 25.246094 24.453125 C 25.246094 25.066406 24.738281 25.566406 24.121094 25.566406 Z M 24.121094 25.566406 " fill-opacity="1" fill-rule="nonzero"/></g><path fill="#000000" d="M 20.632812 18.511719 C 20.632812 18.617188 20.59375 18.703125 20.523438 18.773438 C 20.449219 18.847656 20.359375 18.882812 20.257812 18.882812 C 20.152344 18.882812 20.066406 18.847656 19.992188 18.773438 C 19.917969 18.703125 19.882812 18.617188 19.882812 18.511719 C 19.882812 18.410156 19.917969 18.324219 19.992188 18.25 C 20.066406 18.179688 20.152344 18.140625 20.257812 18.140625 C 20.359375 18.140625 20.449219 18.179688 20.523438 18.25 C 20.59375 18.324219 20.632812 18.410156 20.632812 18.511719 Z M 20.632812 18.511719 " fill-opacity="1" fill-rule="nonzero"/><g clip-path="url(#e3b9ebff9c)"><path fill="#000000" d="M 17.199219 3.367188 C 17.257812 3.3125 17.332031 3.292969 17.425781 3.292969 C 17.539062 3.292969 17.652344 3.347656 17.726562 3.441406 L 18.027344 3.851562 L 9.402344 9.976562 L 10.675781 9.976562 L 19.976562 3.367188 C 20.050781 3.3125 20.125 3.292969 20.199219 3.292969 C 20.3125 3.292969 20.425781 3.347656 20.5 3.441406 L 21.269531 4.480469 L 13.636719 9.976562 L 14.914062 9.976562 L 21.71875 5.09375 L 25.167969 9.789062 C 25.226562 9.863281 25.246094 9.957031 25.226562 10.050781 C 25.226562 10.105469 25.1875 10.160156 25.167969 10.199219 C 25.394531 10.289062 25.621094 10.4375 25.808594 10.585938 C 25.882812 10.457031 25.957031 10.308594 25.976562 10.160156 C 26.03125 9.863281 25.957031 9.566406 25.769531 9.34375 L 21.121094 3.015625 C 20.761719 2.511719 20.050781 2.402344 19.5625 2.773438 L 18.644531 3.421875 L 18.34375 3.015625 C 17.988281 2.511719 17.277344 2.402344 16.789062 2.773438 L 6.605469 9.976562 L 7.882812 9.976562 Z M 17.199219 3.367188 " fill-opacity="1" fill-rule="nonzero"/></g></svg>